<?xml version="1.0" encoding="utf-8"?>
<!-- Generator: Adobe Illustrator 28.2.0, SVG Export Plug-In . SVG Version: 6.00 Build 0)  -->
<svg version="1.1" id="Layer_1" xmlns="http://www.w3.org/2000/svg" xmlns:xlink="http://www.w3.org/1999/xlink" x="0px" y="0px"
	 viewBox="0 0 215.5 230.9" style="enable-background:new 0 0 215.5 230.9;" xml:space="preserve">
<style type="text/css">
	.st0{fill:#FFFFFF;}
</style>
<g>
	<path class="st0" d="M215.5,145.1c-0.8,2-1.8,3.9-2.4,5.9c-0.8,2.6-3,4-6.2,3.7c-0.8-0.1-1.5-0.3-2.5-0.5c-0.1,3.4-2.8,4.4-5.1,5.6
		c0.3,5-3.1,7-7.4,5.4c-1.6,1-2.7,2.3-4,2.4c-2.5,0.3-4.8-0.7-6.2-2.9c-0.4-0.7,0-2,0-2.9c0-0.5,0-1.4-0.3-1.5
		c-0.5-0.2-1.2-0.1-1.7,0.2c-3.7,2-3.5,1.9-6.7-0.8c-1-0.8-3.1-0.3-5.2-0.5c0.6,0.8,0.7,1.1,0.9,1.2c5.1,3,3.6,6.3,0.2,9.2
		c-0.7,0.6-1.4,1.3-2.1,2c1.1,0.7,2,1.8,3.2,2.1c0.9,0.2,2.1-0.6,3-1.2c0.4-0.3,0.5-1.1,0.8-1.7c1.5-3.1,5-4.1,7.9-2.2
		c1.7,1.1,2.6,2.6,1.9,4.7c-0.3,0.8-0.4,1.7-0.7,2.9c2.7-1.5,5.3-1.7,7.9-0.8c2,0.7,3.3,2.2,3.5,4.4c0.2,1.9-0.1,3.6-2,4.7
		c-1.1,0.7-1.8,1.6-0.9,3c0.1,0.1,0.1,0.3,0.1,0.5c0.4,2.2-3.1,5.2-6.9,5.9c-2.9,0.6-3.8-0.1-4.6-3.3c-0.2-0.7-0.9-1.4-1.8-1.9
		c2.7,2.2-0.2,4.9,0.7,7.2c0.1,0.2-1.1,1.4-1.7,1.4c-2.3,0-4.6-0.2-6.9-0.6c-2.2-0.4-3.3-3.2-2.4-5.7c0.5-1.3,1.3-2.5,1.5-3.8
		c0.1-0.8-0.6-1.7-1-2.5c-0.7,0.6-1.9,1.1-1.9,1.8c-0.3,3.2-0.4,6.5-0.2,9.7c0,0.6,1.5,1.2,2.4,1.7c1,0.6,2.6,0.9,3,1.7
		c0.9,2.1,0.1,4.2-1.6,5.6c-0.8,0.7-2.6,0.8-3.7,0.4c-3.1-1.2-5.8-2.9-5-7c0.1-0.6-0.3-1.6-0.7-1.9c-2-1-2.8-2.6-3.4-4.6
		c-0.3-0.8-1.2-1.4-1.9-2.1c-0.7-0.7-1.7-1.3-2.3-2.1c-0.3-0.5-0.4-1.4-0.2-2c0.1-0.3,1.1-0.4,1.7-0.4c0.7,0,1.4,0.1,2.2,0.2
		c0.1-0.2,0.1-0.5,0.2-0.7c-0.8-0.4-1.5-0.8-2.3-1.1c-1.9-0.8-3-1.9-3.6-4.3c-0.6-2.5-2.3-4.7-3.8-7.4c0.6-0.7,1.5-1.8,2.7-3.1
		c2.4,3,5.3,5.2,5,9.7c-0.1,1.4,1.8,2.9,2.9,4.3c0.9,1.1,1.9,2.1,2.9,3.1c-1.5,0.5-3,1.1-4.5,1.6c-0.1,0-0.1,0,0.1,0
		c3.6,3.2,6.3,7,6.5,12.2c0.1,2.3,3.9,4.4,5.8,3.2c0.6-0.4,0.9-1.8,0.9-2.7c0-0.4-1-1.2-1.6-1.2c-3.9-0.5-4.6-1.2-4.5-5.2
		c0-2.4,0.2-4.8,0.5-7.2c0.2-2,1.2-3.6,3.2-4c2.3-0.4,3.8,0.9,5,2.6c1.2,1.8,0.2,3.2-0.9,4.5c-0.3,0.4-0.8,0.6-1,1
		c-0.4,0.6-1,1.5-0.8,2c0.3,0.8,1.1,1.7,1.9,1.9c1.7,0.4,3.6,0.4,5.2,0.6c0.3-1.4,0.5-2.7,0.8-4.2c-0.6-0.4-1.7-0.9-2.3-1.8
		c-0.4-0.6-0.1-1.7-0.1-2.5c4.1-0.9,5.4-0.1,6.9,3.7c0.2,0.6,1.3,1.2,2.1,1.3s1.7-0.3,2.5-0.7c3.8-1.7,3.4-2.7,1.3-4.7
		c-0.7-0.6-1-1.5-1.8-2.8c1.2-0.3,2.1-0.5,3-0.6c1.4-0.2,3.3,0.1,3.5-1.7c0.1-1.2-0.4-2.9-1.2-3.8c-1.1-1.2-2.9-1.7-4.6-0.6
		c-1.4,0.9-2.8,1.8-4.3,2.6c-0.4,0.2-0.9,0.2-2.1,0.5c0.5-2.4,0.9-4.4,1.3-6.4c0.4-1.8,0.6-3.5-1.9-4.1c-2.1-0.5-3,0-2.7,2.2
		c0.3,2.6-0.8,4-3,5c-2.9,1.4-4.7,0.9-6.4-1.8c-0.5-0.8-1-1.6-1.5-2.5c-1-1.8-1-3.3,1.1-4.3c0.8-0.4,1.4-1.3,2.2-2.2
		c-1.3-0.4-2.2-0.7-3.2-1.1c1.1-0.9,2.1-1.7,3.5-2.8c-5.1,0-9.6,0-14.2,0c-0.1-1.7,0.3-2.3,1.9-2.5c2.3-0.2,4.6-0.9,6.9-1.5
		c2.3-0.6,4.5-1.6,6.8-2.1c1.7-0.4,3.4-0.4,4.6,1.6c0.3,0.6,1.9,0.9,2.8,0.7c5.1-1.3,6.1-0.8,7.7,4.4c0.2,0.8,0.5,1.6,0.9,2.2
		c0.7,1,1.7,1.2,2.1-0.2c0.8-2.8,2.5-3.3,5.1-2.6c0.9,0.3,2,0,3.1,0c0.3-2.1-0.7-2.7-2.4-2.5c-0.6,0.1-1.2,0.5-1.8,0.7
		c-2,0.7-3.2-0.1-3.6-2.2c-0.2-1.1-0.8-2.1-1.2-3.2c2.3-1.2,3-0.9,4.6,3c0.1,0,0.4,0.2,0.4,0.1c1.9-2.1,4-2.7,6.7-1.4
		c0.5,0.2,1.9-0.8,2.3-1.5c0.3-0.6-0.1-2-0.7-2.5c-1.3-1.1-2.9-2-4.3-2.9c-0.7-0.5-1.4-0.9-2.2-1.5c2.6-1.4,5.4-0.7,7.3,1.5
		c0.6,0.7,1.4,1.8,2,1.8c1.7-0.1,4-0.3,4.9-1.4c1.1-1.3,1.4-3.6,1.4-5.6c0.1-1.5-0.5-3.1-1.2-4.5c-0.3-0.5-1.9-0.9-2.6-0.6
		c-1.7,0.7-3.2,1.8-4.6,2.9c-3,2.1-5.4,2-7.8-0.7c-0.5-0.5-0.5-2.1-0.1-2.6c1.5-2,3.4-3.5,6.3-3.3c0.8,0.1,1.7,0,2.8,0
		c-0.7-2.5-2.2-3.8-4-4.8c-3-1.6-3.1-2.4-0.9-5.1c0.7-0.9,1.5-1.8,2-2.5c-2.7-0.8-5.2-1.6-8.1-2.5c-0.2,0.2-0.9,0.9-1.6,1.4
		c-1.6,1.2-1.8,2.3-0.5,3.9c1.4,1.7,1.3,3.9,0.3,5.9c-1.1,2.1-2.9,3.1-5.2,3.5c1-1.5,2.1-2.8,2.6-4.2c0.8-2.4-0.3-4.8-2.4-5.6
		c-2.1-0.8-3.8,0-5.2,1.8c-1.5,1.9-2.4,3.6-0.8,6c1,1.4,1.7,3.3,1.8,5c0.2,2.1-3.2,4.7-5.5,4.8c-0.5,0-0.9-0.1-1.9-0.1
		c1.4,3.4,2.6,6.5,4,10c-0.7-0.3-1.2-0.4-1.4-0.7c-1.3-1.9-2.8-3.7-3.6-5.8c-1.3-3.6-0.4-5,3.1-6.3c2.1-0.8,2.7-3.4,1.5-5.9
		c-0.6-1.2-1.2-2.9-0.7-4c1.2-3,2.3-6.3,5.6-7.9c0.5-0.3,1.1-1.9,0.9-2.1c-0.8-0.7-1.9-1.4-3-1.6c-0.8-0.2-1.7,0.4-2.7,0.6
		c0.7-5.8,3.7-6.9,11.4-4.2c-0.7-1.5-1.1-2.5-1.6-3.5c-0.2,0.1-0.3,0.1-0.5,0.2c0.2-1,0.3-2.1,0.4-2.6c-3-0.5-5.6-1-8.3-1.2
		c-0.9-0.1-1.8,0.7-2.8,1.2c-0.8-1.3-0.4-2.1,1.5-2.9c1.3-0.6,2.6-1.1,3.9-1.6c-0.9-3.2-1.5-3.4-4.4-2.6c-0.9,0.2-2-0.4-3.6-0.8
		c-0.7,0.7-0.6,2.2-0.2,3.8c0.9,3.5,0,6.1-3,8.4c0-1.6,0-3.3,0-5c-0.3-0.1-0.7-0.3-1-0.4c-1.5,1.9-2.9,3.9-4.3,5.8
		c-1.1-5.7-1-7.7,5.9-9.6c-0.3-1-0.9-1.9-0.9-2.9c0.1-3.2,2-4.2,5.1-3.2c1.5,0.4,3.1,0.5,4.6,0.6c1.3,0.1,4.6,3,4.7,4.5
		c0.1,2.6-1.9,3-3.8,3.3c0.1,0.2,0.2,0.4,0.2,0.7c1-0.3,2.1-0.4,2.9-1c2.6-2.2,4.6-1.6,5.5,1.7c0.5,1.7,1,3.4,1.6,5
		c0.7,2-0.2,3.4-1.6,4.6c-1.5,1.2-2.6,0.1-3.8-0.7c-1.2-0.8-2.3-2.4-3.6-0.1c1.9,1.3,3.6,2.6,3.6,5.3c0,0.4,0.9,0.8,1.2,1.2
		c1.4-1.8,2.6-3.6,4-5c2-2,3.5-2.1,5.7-0.4c1.6,1.2,3.3,1.8,5.3,1.6c2.1-0.2,3.2,0.9,3.3,3.1c0.1,3.6,0.1,7.2,0.1,10.7
		c0,3.1-0.7,3.8-3.7,4.4c-2,0.4-2.1,0.4-1.8,2.7c1.4-0.5,2.7-0.8,4-1.4c5.7-2.9,8.8-2,12,3.4C215.5,143.5,215.5,144.3,215.5,145.1z"
		/>
	<path class="st0" d="M101,230.9c-1.9-1.3-3.7-2.6-6.4-2.8c-2.9-0.2-3.4-2-2.1-5.3c-1.6-0.2-3.5,1.3-4.5-1.2c-0.9-2.3-0.9-6,0.2-8
		c-0.8,0.5-1.6,0.9-2.4,1.5c-1.6,1.2-3,2.7-4.7,3.6c-1,0.5-2.7,0.6-3.7,0c-0.9-0.6-1.4-2.1-1.8-3.3c-0.2-0.7,0.2-1.5,0.4-2.3
		c0.8-3.4,0.7-3.8-2.5-5.1c-0.4-0.2-0.7-0.3-1.1-0.5c-2.7,1.9-4,1.4-5.8-1.5c-0.4-0.7-2.1-1.4-2.8-1.1c-1.7,0.7-3,0.1-3.4-1.1
		c-0.4-1.2-1.3-3,0.6-4.2c0.6-0.4,0.8-1.6,1.1-2.4c0.3-0.9,0.3-1.9,0.7-2.7c1.2-3.3,0.2-4.8-3.2-4.4c-0.4,0.1-0.8,0-1.2,0.1
		c0,0.2-0.1,0.4-0.1,0.5c0.3,1,1.3,2.6,1,2.8c-0.9,0.8-2.2,1.5-3.3,1.4c-2-0.1-3.6,0.2-5.1,1.8c-1.2,1.3-2.6,0.8-3.6-0.7
		c-0.5-0.8-0.8-1.7-1.2-2.6c-0.6-1.1-1.1-2.1-2.9-1.8c-0.8,0.1-1.9-0.8-2.7-1.5c-1.8-1.5-3.4-3.2-4.5-4.2c-3.4,1.9-5.9,3.8-8.7,4.8
		c-4.1,1.4-6.6-0.3-7.3-4.5c-0.3-1.5-0.6-2.7-2.2-3.2c-0.4-0.1-0.8-0.5-1.1-0.9c-1.3-1.8-1.5-4.4-3.9-5.5c-0.3-0.1-0.1-2.1,0.4-2.8
		c1.3-1.8,2.8-3.4,4.3-5.1c0.6-0.7,1.9-1.6,0.4-2.4c-0.6-0.3-1.8,0-2.5,0.4c-0.7,0.4-1.1,1.3-1.6,2.1c-0.8,1.2-1.7,2-3.3,1.8
		c-1-0.1-2,0.6-3,0.7c-1.1,0-2.6,0.1-3.3-0.6c-0.6-0.5-0.4-2-0.3-3c0.1-0.7,0.5-1.3,0.9-1.9c1-1.5,0.7-2.2-0.7-3.5
		c-1-0.9-1.2-3.2-1.2-4.8c0-1.2,1-2.3,1.5-3.4c-1-1.2-2.5-2.2-3-3.7c-0.8-2-1-4.3-1.1-6.5c-0.2-3.8,2.5-5.7,5.4-4.6
		c0.9-1.2,1.5-2.6,2.5-3c1.2-0.5,2.8-0.1,4.2-0.1c0.8-3.7,1-3.8,7.3-2.9c-0.3-2.6,1.3-2.9,3.2-2.8c2.1,0.1,2.7,1.2,2.7,4.5
		c-0.9-0.5-1.7-0.9-2.8-1.5c-0.2,1.2-0.3,2.1-0.5,3.3c-0.9-0.3-1.7-0.5-2.5-0.8c-1.8-0.7-3.2-0.3-4.4,1.3c-2.3,2.9-2.9,3.1-6.3,1.7
		c-0.4-0.1-0.7-0.3-1.3-0.4c-0.1,0.8-0.2,1.5-0.4,2.2c-0.2,0.1-0.4,0.2-0.6,0.3c-1,0.2-2.2,0-3,0.6c-0.8,0.5-1.1,1.7-1.6,2.6
		c0.8,0.4,1.6,1,2.5,1c1.1,0.1,2.2-0.3,3.3-0.4c0.4-0.1,0.9,0,1.5,0.4c-1.2,0.5-2.4,1-3.6,1.5c-1.6,0.6-2.3,1.9-1.4,3.1
		c0.6,0.9,2.7,1.8,3.4,1.4c2.4-1.4,4.9-1.2,7.4-1.1c1.5,0,2.7-0.1,3.2-1.9c0.2-0.8,1.5-1.4,2.4-1.9c0.3-0.1,1.5,0.6,1.4,0.8
		c-0.2,1.1-0.4,2.5-1.1,3.2c-2.8,2.5-6.3,3.4-9.9,3.6c-4,0.2-4.8,1.1-5.2,5c-0.1,1.1-0.2,2,1.3,2.2c0.4,0.1,1,1.5,0.8,2.1
		c-0.6,1.9-1.5,3.6-2.3,5.4c2.3,1,3.9,0.4,5.3-1.6s3.1-3.9,4.9-5.7c1-1,2.5-1.3,3.3,0.1c1.9,3.2,3.5,6.5,5.4,9.8
		c-0.8,0.2-1.1,0.4-1.2,0.3c-3.2-2-5.2,0.6-7.4,2.1c-0.9,0.6-1.6,1.8,0.2,3.2c1.7,1.3,2.9,2.6,5.2,2.3c0.3,0,0.8,0.9,0.9,1.4
		c0.3,1.3,0.5,2.7,0.7,4c0.6,3.7,4.8,5.4,7.5,2.8c1.3-1.2,2.3-3,2.8-4.7c0.7-2.1,1.8-3.5,3.8-4.3c2-0.7,3.3-1.7,3.5-4
		c0.1-1.4,1.1-2.1,2.6-1.7c-0.2,1.7-0.3,3.5-0.6,5.2c-0.2,1.4-1,2.1-2.5,2.4c-1.2,0.3-2.2,1.2-3.2,1.8c2.2,1.9,3.9,3.4,5.7,4.8
		c0.3,0.2,1,0,1.5-0.2c0.7-0.3,1.4-0.8,2.7-1.5c1.1,3,2.2,5.8,3.2,8.7c1.3-0.3,3.1-0.7,4.7-1.3c0.4-0.1,0.8-1.5,0.6-1.8
		c-1.2-1.7-0.1-1.9,1.1-2.2c0.3-0.1,0.6-0.1,1-0.1c2.1,0,3.5-0.5,2.7-3c-0.1-0.2,0.1-0.6,0.1-1.1c0.5,0.3,1,0.5,1.1,0.7
		c0.5,2.6,2.7,3.5,4.7,4.6c1.8,0.9,2.3,2.2,1.1,4.1c-1.7,2.9-1.1,3.8,2.2,3.8c2.1,0,3.9-0.4,5.2-2.3c0.4-0.5,1.7-0.8,2.4-0.6
		c2.7,0.7,5,0.6,7.2-1.6c1-1,3.1-1,4.2-1.4c0.6,3.3,0.8,6.1,1.5,8.7c0.4,1.6,0.6,2.9-0.9,4c-0.5,0.4-0.8,1-1.2,1.5
		c4.5,0.4,6.2-3.5,6-6.9c0-0.7,0.2-1.4,0.4-2.1c0.3-1.2,0.7-2.4,1.1-3.9c0.4,0.8,1.4,1.9,1.4,3c0,2.8-0.3,5.6-0.6,8.3
		c-0.5,4.2-1,4.6-5.2,5.1c-0.4,0-0.8,0.1-1.1,0.2c0.3,2.2,0.7,4.3,1.1,6.9c0.4,0.1,1.5,0.5,3,1c-1.8,0.5-3.2,0.8-4.7,1.2
		c0.9,3.8,5.2,0.8,6.2,3.8c0,0.1-0.1,0.3-0.2,0.5c-1.9,2.8-1.8,2.8,1.4,3.3c1,0.2,2.1,0.7,2.9,1.4c1.5,1.3,2.7,0.7,4.1-0.2
		c1.3-1,3.2-1.8,2.3-3.9c-1.3-2.7-0.3-4.8,0.9-7.2c1.1-2.2,1.6-4.7,2.4-7.4c0.2,1.5,0.5,3,0.5,4.4c0,1.1-0.3,2.2-0.5,3.3
		c-0.6,4.8,0.4,5.9,5.8,5.3c-0.8-1.8-1.6-3.4-2.3-5.1c-0.2-0.4,0.2-1,0.3-1.4c0.5,0.2,1.1,0.2,1.3,0.5c0.6,1,1,2.2,1.6,3.2
		c1.2,2,3.5,2.5,5.1,1.4c1.7-1.2,1.7-3-0.1-4.9c-0.4-0.5-0.9-0.9-1.4-1.4c-3-2.8-3-2.8-1.1-6.6c0.3-0.5,0.1-1.5-0.2-2
		c-1.3-1.7-1.8-3.4-1.5-5.6c0.1-1.1-0.4-2.2-0.7-3.4c2.3-1,3.5-0.4,4.5,1.9c1.2,2.6,2.5,5.1,3.9,7.5c0.4,0.7,1,1.4,1.7,1.6
		c1.3,0.3,2.6,0.2,3.9,0.3c0.1-1.2,0.3-2.4,0.2-3.6c-0.3-2.5-0.9-5-1.3-7.5c-0.4-2.6-2.2-3.7-4.5-4.2c-3.6-0.9-4.1-2.6-1.2-6.1
		c-0.7,4,2.3,4.2,4.3,5.3s3.2,2.7,3.5,5.1c0.2,2.4,0.8,4.9,1.4,7.3c0.8,3.2,0.4,5-1.8,6.3c-2.9,1.6-6.4,1.2-8.3-1
		c-0.1-0.2-0.3-0.3-0.5-0.5c-1.9,2.4-1.6,3.7,1.3,4.6c1.8,0.6,2.7,1.7,2.1,3.4c-0.7,2-1.6,4-2.8,5.7c-0.9,1.2-2.5,2.1-4.2,0.9
		c-0.3-0.2-0.7-0.1-1.1-0.1c-2.7,0.2-5.4,0.5-8.5,0.7c0.2,3.8-3.7,4.8-6.5,6.7C102,230.9,101.5,230.9,101,230.9z M86.3,194
		c-1.8,1.7-3.6,3.6-6.4,2.9c-1.6-0.4-2.8-0.2-3.8,1.5c-0.5,0.8-2.2,1-3.4,1.3c-1.3,0.3-2.6,0.5-4,0.6c-1.2,0.1-2.4-0.1-3.7,0
		c-0.7,0-1.5,0.3-2.2,0.4c0,0.3,0,0.5,0.1,0.8c2,1.1,4.1,1.9,5.9,3.3c1.7,1.2,2.5,0.9,3.4-0.7c0.4-0.8,1.1-1.5,1.3-1.8
		c1.3,1.7,2.3,3.6,3.8,4.9c2.2,2,2.8,4.1,1.6,6.8c-0.3,0.7-0.4,1.6-0.7,2.8c3.2-0.7,5.2-2.5,7.2-4.3c1.5-1.2,1.9-2.6,1.1-4.4
		c-0.9-2-0.9-3.8,1.2-5.3c0.4-0.3,0.6-1.1,0.4-1.6C87.6,198.9,87,196.6,86.3,194z"/>
	<path class="st0" d="M94.2,53.1c12.5,0.2,23.7,4.6,34.6,10.2c10.1,5.1,17.6,13,23.7,22.2c6.4,9.7,9.8,20.5,10.6,32.1
		c0.9,14-1.7,27.4-9.2,39.4c-3.3,5.3-7.4,10.5-12.1,14.7c-10.2,9.3-22.2,15.9-36,18.2c-7.1,1.2-14.3,1.3-21.4-0.3
		c-6.8-1.5-13.6-3.2-20-6.4c-19.6-10-31.3-26.1-36-47.2c-8.5-38.3,18.3-74.6,54.9-81.7C86.9,53.7,90.6,53.5,94.2,53.1z M36.8,135.6
		c1.2,6.8,3.6,12.9,6.3,19c0.3,0.6,1.4,1.2,2.1,1.1c11.5-0.8,23-1.6,34.5-2.7c5.9-0.6,11.8-1.7,17.8-2.4c4.1-0.5,8.2-0.8,12.3-1
		c4.1-0.1,8.3-0.3,12.4,0.2c4.5,0.5,8.8,1.8,13.9,2.8c-1.9-3.3-3.6-6.3-5.3-9.2c-1.5-2.6-3.7-4.3-6.5-5.4c-2.5-0.9-4.9-1.9-7.5-2.5
		c-14.4-3.4-29-2.5-43.5-1.2c-8.7,0.8-17.4,2.3-26.2,1.3C43.8,135.3,40.5,135.6,36.8,135.6z M48.5,162c2.3,4.8,5.9,7.6,9.7,10
		c8,5.1,16.7,8.8,26,10.3c14.5,2.4,28.6,1.1,41.4-7c3.7-2.4,7.2-5.3,10.6-8.2c1.8-1.5,1.6-2.4-0.4-3.7c-1.4-0.8-2.8-1.5-4.3-2.1
		c-9.8-4.1-20.2-3.7-30.4-3.4c-13,0.6-26.1,2-39.1,3.1C57.7,161.3,53.3,161.6,48.5,162z M123.9,127.2c-0.5-1.2-1-2.4-1.5-3.5
		c-2.3-5.2-5.7-9.4-11.3-11c-5.2-1.5-10.7-3.2-16-3.3c-12.3-0.3-24.7,0.4-37,0.6c-6.7,0.1-13.4,0.2-20.1,0.1c-2.3,0-3.5,0.6-3.5,2.9
		c-0.1,4.9-0.4,9.7-0.3,14.6c0.1,3.4,0.3,3.3,3.9,3.4c9.4,0.4,18.5-2,27.8-3c8.3-0.9,16.6-2.3,24.9-3c6.3-0.5,12.7-0.8,19.1-0.4
		C114.5,124.9,119.1,126.3,123.9,127.2z M112.7,103.3c-0.9-2.1-1.8-3.9-2.4-5.7c-2-5.9-6.4-8.9-12.2-10.3c-2.2-0.5-4.5-0.8-6.8-1.1
		c-14.6-2-29.3,0-43.9,0.1c-1.6,0-2.8,0.7-3.6,2.2c-1.9,3.9-4,7.6-5.8,11.5c-0.9,1.9-1.3,4-2.1,6.4c1.2,0,2,0.1,2.8,0
		c4.3-0.5,8.7-1.1,13-1.6c11.6-1.4,23.2-2.9,34.8-4.2C95.2,99.6,103.8,100.5,112.7,103.3z M138.4,134.8c2.8-3.2,5.2-6.2,7.8-9.1
		c3-3.3,5.1-7.3,9.5-9.2c1.3-0.5,2.8-1.7,2.3-3.8c-1.3-4.8-2.5-9.7-4.2-14.4c-1-2.7-3-4.9-4.7-7.5c-7.7,7-13.3,14.8-16.6,24
		c-0.8,2.2-0.8,5.2-0.1,7.4C134,126.6,136.4,130.7,138.4,134.8z M51.4,79.4c0.1,0.4,0.3,0.7,0.4,1.1c16.5-1.9,32.9-5.6,49.8-1.4
		c-0.7-1.8-1.3-3.1-1.9-4.5c-1.5-3.6-3.1-7.1-4.6-10.8c-1.6-3.9-2.2-4.1-6.4-3.8C77.6,60.7,68,65.4,59.3,72.3
		C56.5,74.5,54,77,51.4,79.4z M147.2,86.5c-3.3-5.1-7.1-9.5-11.9-13.1c-1.7-1.3-3-1.1-4.6,0.1c-4,3.1-7.1,7.1-9.3,11.4
		c-2.1,4.3-3.9,9.1-1.7,14c1.8,3.9,3.9,7.6,5.9,11.6C130.6,100.4,138.7,93.3,147.2,86.5z M98.3,59.8c4.9,8.7,9.6,16.9,14.2,24.9
		c4-4.6,7.8-9.2,11.7-13.6c1.3-1.4,1-2.2-0.4-3.2C116.5,62.2,108.1,59.8,98.3,59.8z M157.2,123.2c-0.3-0.1-0.6-0.3-0.8-0.4
		c-1.1,1.5-2.2,3-3.3,4.5c-1.5,2-2.9,4.2-4.6,6.1c-3.1,3.5-4.3,7.7-4.1,12.1c0.2,3.2,2.1,6.2,4.4,9.2
		C154.4,144.5,156.2,134,157.2,123.2z"/>
	<path class="st0" d="M152.2,67.1c0.2,0.5,0.2,0.7,0.3,0.7c3.2,0.9,4.4,3.4,5.3,6.3c0.4,1.2,1.8,2.2,3,3c1.5,1.1,1.5,2,0.1,2.9
		c-2.2,1.4-4.5,2.7-6.8,3.9c-0.3,0.2-1-0.3-1.6-0.4c0.2-0.5,0.2-1.3,0.6-1.5c0.9-0.6,2-1,3-1.4c1.9-0.8,2.2-2.1,1-3.6
		c-1.9-2.5-2.6-5.9-6.1-7.1c-0.6-0.2-1-1.6-1.2-2.4c-0.3-1.7-1.5-2.3-2.9-2c-1.8,0.4-3.5,1.2-5.3,1.7c-1,0.3-2,0.2-3.1,0.2
		c0-0.2,0-0.5,0-0.7c0.7-0.5,1.6-0.9,2.1-1.6c2.1-3.1,5-2.2,7.8-1.6c1,0.2,2.1,0.3,3.3,0.5c-0.5-3.8,0.2-4.4,3.8-3.9
		c0.7-2.9,0.6-3-4.4-4c2.7-2.6,3.5-2.9,5.9-1.9c2.3-2.1,2.9-5.8,1.2-8.1c-0.9-1.3-1.7-1.7-3.1-0.4c-2,1.9-4.2,3.7-6.3,5.5
		c-0.6,0.5-1.4,0.9-2,1.4c-0.2-0.2-0.3-0.3-0.5-0.5c0.4-0.7,0.8-1.6,1.4-2.2c1.9-2,4-3.9,5.9-5.9c0.9-0.9,1.9-2,0.6-3.3
		c-1.2-1.3-2.7-1.5-4.1-0.5c-1.6,1.2-3.1,2.5-4.5,4c-3,3.1-5.8,6.4-8.7,9.6c-0.2,0.2-0.4,0.3-1,0.3c0.3-0.7,0.6-1.4,1-2
		c3.1-4.5,6.2-9.1,9.4-13.6c0.6-0.9,1.4-1.8,1.9-2.7c1.6-3,0.8-4.1-2.3-5c-1.2-0.3-2.1-1.7-3.2-2.5c-0.7-0.5-1.9-1.4-2.3-1.2
		c-2.5,1.6-4.3,1.1-5.7-1.4c-0.1-0.2-0.4-0.3-0.6-0.4c-1.7,0.7-2.3,1.9-2.3,3.7c0,2.7,0,5.4-0.1,8.1c-0.1,3.5-0.7,6.9-4.7,8.3
		c-1.3,0.4-1.6,1.3-0.9,2.6c0.6,1.2,0.9,2.6,1.3,3.9c-0.2,0.1-0.5,0.2-0.7,0.3c-0.6-0.8-1.2-1.7-1.8-2.6c-0.5,0.1-1.2,0.1-1.8,0.3
		c-0.6,0.2-1.6,0.8-1.6,1.1c0.1,0.8,0.6,1.6,1.1,2.2c0.5,0.5,1.3,0.7,1.8,1.1c1.4,1.1,1.4,2.1,0.3,3.2c-1.1-0.9-2.4-1.7-3.2-2.7
		c-1-1.2-2.5-2.8-2.3-3.8c0.4-1.4,2.2-2.5,3.7-3.5c0.6-2.7-1.2-4.5-3.6-6.2c-0.4,1.5-0.7,2.9-1.2,4.2c-1.1,3-2.7,3.7-5.5,2.4
		c-2.7-1.4-5.5-1.7-8.5-1.2c-1.8,0.3-3.7-0.6-5.5-1c-2.5-0.5-2.7-0.3-2.6,2.3c0,1.2-0.2,2.3-0.3,3.5c-0.3,0-0.6,0.1-0.9,0.1
		c-0.6-1.9-1.4-3.8-1.6-5.8c-0.3-2.1,3.5-4.2,5.6-2.9c2.9,1.9,5.6,1.9,8.8,0.7c1.5-0.6,3.5-0.2,5.1,0.3c1.9,0.7,2.7,0.4,3.3-1.6
		c1.2-3.8,3.8-4.3,6.5-1.3c0.6,0.6,1.6,1.4,2.1,1.3c1.6-0.6,3.8-0.7,4.1-3.1c0.3-2.4,0.6-4.9,1-7.6c-2.1,2.1-4.1,1.6-6.1,0.2
		c-1.3-0.9-1.4-2-0.6-3.3c1.3-2,3.2-2.7,5.4-3.2c0.9-0.2,2.6-0.8,2.6-1.2c0-1.3-0.3-2.9-1.1-3.9c-0.5-0.7-2.5-1-3.2-0.6
		c-1.2,0.8-1.9,2.3-2.8,3.5c0.2,0.3,0.3,0.5,0.5,0.8c-0.8-0.1-1.6-0.3-2.5-0.4c0.2-1,0.3-1.7,0.5-2.7c-2,0.1-2.8,1.1-2.9,2.8
		c-0.2,1.7-0.5,3.2-2.9,2.4c-0.3-0.1-1.4,0.8-1.5,1.3c-0.2,1.2,0,2.4,0,3.6c0,2.5-0.9,3.5-3.4,3.6c-1.7,0.1-3.5,0-5.5-0.4
		c0.9-0.5,1.8-1,2.7-1.5c2.5-1.4,2.8-2.9,1.2-5.3c-0.5-0.7-1.2-1.3-1.7-2s-1-1.4-1.6-2.3c-2.9,0.8-3.1,3.9-5.2,5.6
		c0-0.5,0-1.1,0.2-1.6c1.5-4.2,0.7-8.1-1.2-12c-0.4-0.8-0.4-1.8-0.5-2.8c-0.2-2.2-1.2-2.7-3.2-1.6c-0.6,0.3-1.3,0.5-2.1,0.7
		c0.3,1.7,0.6,3.3,0.9,4.9c-0.2,0.1-0.4,0.2-0.6,0.4c-0.6-0.8-1.6-1.5-1.7-2.3c-0.4-2.9-2.8-3.9-4.8-5.3c-0.2-0.2-1.8,1-1.8,1.2
		c0.5,1.6,1.2,3.1,2,4.6c0.4,0.7,1,1.4,1.4,2.1c-0.8,0.4-1.6,0.9-2.4,1.2c-0.4,0.2-1,0.1-1.4,0.3c-0.9,0.4-2.5,0.2-2,2
		c0.4,1.5,1.4,2.4,3,2c1.7-0.4,3.3-1.1,5.1-1.7c-0.5,2.3-2.5,2.7-4,3.4c-2.8,1.1-3.1,1.7-2.1,4.4c0.1,0.2,0.2,0.4,0.3,0.6
		c0.6,1.2,1.3,2.3,2,3.8c1.9-1.4,1.8-5.7,6.1-3.8c-3.9,1.2-3.3,5-5,7.4c-1.1,1.7-2,1.8-2.9,0.1c-1.4-2.8-2.8-5.5-3.9-8.4
		c-0.5-1.4-1-3.2,1.1-3.9c-1.1-1.2-2.2-2.1-2.9-3.3c-1.2-1.9-0.6-3,1.5-3.8c2.8-0.9,3.2-1.5,2.4-4.3c-0.7-2.4-1-4.6,1.5-6.1
		c-1.5-3.1-4.3-4.4-7.4-3.3c-0.5,0.2-0.9,1-1,1.5c0,0.8,0.5,1.7,0.5,2.6S78.5,10,78,10.1c-1,0.3-2.5,0.3-3.4-0.2
		c-1-0.5-1.5-1.8-2.2-2.7c-0.7-0.8-1.4-1.6-2.2-2.1c-3.1-1.7-4.9-0.9-5.4,2.5c-0.4,2.4-0.4,4.9-0.3,7.4c0.1,2.8,1.5,5,4.2,6.2
		c1.6,0.8,3.1,1.5,4.6,2.6c-2.2-0.2-4.4-0.1-6.4-0.6c-1-0.3-2-1.5-2.6-2.6c-1.7-3.1-3.1-6.3-4.8-9.4c-1.7-3-5.9-3.2-8.2-0.5
		c-0.8,1-0.2,1.9,1.4,2.7c-0.3,1.7-0.6,3.3-0.9,5c-1.4-0.8-3-1.8-4.7-2.5c-0.8-0.3-2.5-0.3-2.7,0.1c-0.7,1.6-1.1,3.4-1.3,5.1
		c0,0.3,1.5,1,2.4,1.2c1.9,0.4,3.8,0.7,5.7,1c0,4-3.7,3.2-5.4,4.8c2.8,3.6,6.9,4.7,10.5,3c3-1.5,5.5-0.3,7.9,1.8
		c-1.7,0.3-3.5,0.4-5,1c-2.5,1-2.9,2.4-1.4,4.5c1.7,2.3,0.2,3.8-1.4,5.6c1.3,0.6,2.3,1.1,3.4,1.6c1.2-2,2.8-3.6,4.9-2.5
		c1.5,0.8,2.4,2.9,3.1,3.9c0.1-1.3,0-3.2,0.4-5.1c0.6-2.6,2.5-3,4.4-1c0.8,0.8,1.3,1.8,2,2.7c0.6,0.8,1.3,1.5,2,2.3
		c0.2-0.1,0.4-0.2,0.5-0.4c-0.7-1.1-1.7-2.2-2.1-3.4c-0.5-1.2-1.1-2.9-0.6-3.9c0.3-0.7,2.4-1.1,3.5-0.9c2.2,0.4,5.2-0.2,6.1,3.6
		c-1.8-0.5-3.3-1-4.8-1.2c-0.7-0.1-1.6,0.3-2.4,0.4c0.2,0.8,0.2,1.7,0.5,2.4c0.6,1.4,1.7,2.7,1.9,4.2c0.3,2-0.7,2.7-2.6,1.8
		c-2.2-1.1-4.1-2.4-5-4.9c-0.2-0.6-0.6-1.2-1-1.8c-0.3,0.1-0.6,0.1-0.9,0.2c0.1,1,0.1,2.1,0.3,3.1c0.2,0.8,0.7,1.6,0.9,2.4
		c0.4,1.4,0.3,2.5-1.4,3c-1.5,0.4-2.9,0.4-3.5-1.4c-0.4-1.1-0.5-2.4-1.1-3.4c-0.3-0.5-1.7-1-2.2-0.7c-2.2,1.4-1.5,4.8,0.5,6.5
		c3.4,2.8,6.8,2.4,10.3,0.6c0.3-0.2,0.7-0.2,1.1-0.3c-0.2,1.9-2.3,3.4-6.3,3.8c-2.5,0.2-5.1-0.6-7.8-0.9c-0.8,2.2-2.4,3.6-5.1,3.5
		c-0.6,0-1.5,0.9-1.7,1.6c-1.7,4.6-1.7,4.7-6.8,4.7c-0.5,0-0.9,0.1-1.6,0.1c-0.1,0.9-0.2,1.7-0.3,2.6c-1.5-1.9-1-3.9,1.1-3.9
		c4.7,0.1,5.9-2.4,5.9-6.4c0-1.5,0.9-2.7,2.8-2.6c2.6,0.2,4.7-1.8,4.7-4.4c0-0.7,0-1.4,0-2.3c-0.8-0.1-1.5-0.2-2.2-0.4
		c-2.6-0.7-3.4-3.5-1.8-5.6c0.5-0.7,0.7-1.8,0.6-2.6c-0.2-1.2-1-1.8-2.5-2s-2.9-1.4-4.1-2.4c-1.5-1.2-2.8-2.8-4.3-4
		c-1.6-1.3-1.9-2.8-0.4-4.2c0.5-0.5,1.1-0.9,1.7-1.4c-1.8-0.4-3.4-1-5-1.1c-0.5,0-1.5,0.9-1.7,1.6c-0.7,2.6-2.4,3.3-4.8,3.4
		c-1.1,0-2.2,0.5-4,0.9c1.8,1.5,2.9,2.4,4.1,3.4c-0.1,0.2-0.1,0.4-0.2,0.6c-1.8-0.2-3.6-0.3-5.4-0.5c-3,6.5-0.1,11.3,7.7,13.1
		c-1.8,0.8-3.6,1.7-5.9,2.7c0.5,0.5,1.2,1.3,2.1,1.7c1.4,0.8,2.9,0.9,4.2-0.4c1-1,1.9-2.2,3-3.1c1.4-1.1,2.7-1,4.1,1
		c-2.6-0.6-3.2,0.9-3.9,2.5c-0.8,2.1-1.5,4.3-4.5,4.1c-2.7-0.2-6.2-2.4-6.9-4.8c-0.3-1,0-2.1,0-3.7c-0.7-0.6-1.8-1.6-3.3-2.9
		c0.1,1,0.2,1.6,0.3,2.1c0.4,1.7,0.4,3.3-1.4,4.4c-0.5,0.3-0.6,1.2-0.9,1.8c0.6,0.2,1.2,0.6,1.9,0.6c0.6,0.1,1.3-0.1,1.9-0.2
		c1.6-0.2,2.4,0.2,2.1,2.1c-0.7,3.7,0.5,5.7,4,6.9c1.6,0.6,1.9,1.4,1,2.9s-1.7,3.1-2.6,4.9c1.3,0.6,2.4,1,3.5,1.5
		c0,0.2,0,0.4,0.1,0.6c-1.1,0-2.3-0.1-3.4,0c-0.6,0.1-1.3,0.3-1.7,0.7c-0.2,0.2,0.2,1.1,0.5,1.6c0.2,0.4,0.7,0.7,1,1
		c1.8,2.2,1.4,3.8-1.2,4.6c0.2,3,1.5,4.5,5.4,6.2c-1.2,0.4-2.5,1.3-3.7,1.2c-0.9-0.1-1.7-1.5-2.6-2.3c-0.4-0.4-0.6-1-1-1.1
		c-3.2-1-6.3-2.2-8.4-5.1c-0.1-0.1-0.4,0-0.6,0c0.5,2.3,0.9,4.6,1.4,6.8c0.5,2.3-0.2,3.9-2.6,4.5c-1.1,0.3-2.1,0.9-3.7,1.5
		c1.8,1.6,3.1,2.8,4.8,4.3c-1.7-0.4-2.8-0.9-4-1c-0.7,0-2,0.9-1.9,1.1c0.6,3.1,0.8,6.2-0.2,9.3c-0.1,0.2,0.2,0.6,0.3,1
		c2-0.3,4-0.7,6.6-1.1c-0.4,1.8-0.8,3.4-1.1,4.9c0.4,0.4,0.9,0.8,1.5,1.3c0.3-0.9,0.6-1.8,0.9-2.7c0.5-1.7,0.8-3.8,3.2-3.3
		c2.6,0.5,1.9,2.6,1.6,4.7c-2-1.6-2.9-0.8-3.7,1.3c-0.3,1-1.8,2.4-2.4,2.3c-1.6-0.4-3.8-0.7-3.6-3.3c0.1-0.8,0-1.7,0-2.7
		c-1.9,0.7-3.8,1.6-5.3-0.4c-1.7-2.2-1.8-4.4-0.6-6.9c0.5-1,0.7-2.2,0.6-3.2c-0.2-1.7-0.6-3.3,1.4-4.4c0.2-0.1,0.3-0.7,0.2-1.1
		c-0.1-1.9,0.8-3.1,2.5-3.9c2.7-1.3,3.4-4.7,1.9-7.3c-0.5-0.9-0.8-2.3-0.5-3.2c0.2-0.5,1.8-0.5,2.6-1.1c1.7-1.2,3.5-2.5,4.9-4.1
		c0.8-0.9,0.9-2.4,1.6-3.4C26.8,67,28,66,29.1,65c-1.7-2-2.6-5.8-2.2-10.8c-0.6,0.2-1.2,0.5-1.8,0.6c-2.4,0.7-4.1-0.9-3.6-3.4
		c0.1-0.5,0.3-1.1,0.6-1.6c2.5-3.2,1.8-6.7,1.2-10.2c-0.7-4.1,1.4-7.7,5.5-8.7c-0.6-2.9,1.1-4.2,3.6-5.2c2.8-1.1,5.3-2.7,8-4.1
		c0.2-1.4,0.5-2.8,0.7-4.2c1-5.2,1.9-5.7,6.6-3.7c0.7-4.9,2.6-6.6,8-7.8c2.5-0.5,3.7,0.7,4.6,3.1c0.9-1.6,1.5-2.9,2.4-4.1
		c1.8-2.7,4.1-3.3,7.1-2c1.8,0.8,3.5,1.7,5.8,2.8c-0.3-1.2-0.4-1.9-0.5-2.6c2-1.9,3.9-3.5,6.9-2.2c2.4,1.1,4.4,2.2,5.6,4.8
		c0.6,1.3,2.3,2,3.4,3.1c1.6,1.6,2.9,0.4,4.3-0.3c2.4-1.1,4.7,0.3,6.1,2.4c2.2,3.3,2.2,7,3.1,10.6c2-2,3.3-1.3,4.3,1.1
		c0.5,1.2,1.6,2.2,2.1,2.8c1.4-0.6,2.6-1.1,3.7-1.7c0.8-0.4,1.7-0.9,2.1-1.6c1.2-2.4,2.6-4.2,5.7-3.7c0.5,0.1,1.2-0.4,1.7-0.7
		c3.8-2.1,6.8-1.1,8.5,2.9c1,2.5,3,3.5,5.3,3.4c3.2,0,5.6,0.6,6.8,4c0.2,0.7,2,1,3,1.1c2.9,0.2,5.2,2,5.3,4.8c0.1,1-0.6,2-1,3.1
		c2.2,1.1,5,2.1,5.3,5.5c0,0.4,0.8,0.7,1.3,0.9c2.9,1.8,3.8,3.6,2.8,6.8c-0.7,2.4-0.8,5.1-3.4,6.6c-0.3,0.1,0.1,1.8,0.6,2.6
		c0.3,0.6,1.2,1,1.3,1.1c2.1-0.9,3.8-2,5.6-2.3c1-0.2,2.6,0.7,3.1,1.5c0.4,0.7-0.1,2.3-0.7,3.2c-0.7,1.1-1.9,2-2.7,3
		c-0.4,0.6-0.6,1.3-0.7,2.2c2.5-1.2,4.3-4.1,7.3-2.7c1.5,0.7,2.9,2.3,3.8,3.8c2.1,3.3,1.7,4.8-1.5,7.2c2.7,1.9,4.3,4.2,3.3,7.6
		c-1.1,3.6-3.9,4.5-7.2,4.7c-1,3.8-3.6,5.8-7.2,6.5c-2.5,0.5-4-0.6-4.4-3.1c-0.2-1.3-0.1-2.8-0.7-4c-0.5-1-1.7-1.7-2.8-2.7
		c1.9-1.1,3-0.2,3.5,1c0.8,1.6,1.2,3.3,1.7,4.9c0.5,1.7,1.4,2.3,3,1.6c0.9-0.4,1.9-0.8,2.7-1.4c2.3-1.7,2.3-2.7,0.5-4.9
		c-0.5-0.6-0.8-1.3-1-2.2c2.6,1.1,4.9,3.7,7.8,0.9c1.5-1.5,1.9-3.3,0.8-5.2c-1.2-2.2-2.1-2.5-5.5-2.1c0.9-1,1.8-2,2.8-2.9
		c2.6-2.4,2.9-3.8,1.1-6c-1.6-1.9-2.9-2-4.9-0.3c-1.1,1-2.4,2-3.7,0.5c-1.2-1.4-1.4-3,0.1-4.5c0.7-0.7,1.5-1.5,1.9-2.4
		c0.3-0.6-0.1-1.4-0.1-2.1c-0.8,0.1-1.6,0-2.3,0.3c-0.5,0.2-0.7,1-1.1,1.2c-0.8,0.4-1.8,0.8-2.6,0.6c-1.9-0.3-3.8-1-6.1-1.4
		C154.5,63.9,154.8,65.9,152.2,67.1z M30.4,76.8c0.1-0.3,0.3-0.5,0.4-0.8c-0.7-0.5-1.6-0.9-2.2-1.5c-1.2-1.2-1.1-2.4,0-3.8
		c0.6-0.8,0.9-1.9,1.4-2.9c-0.3-0.2-0.6-0.4-0.9-0.6c-0.6,0.5-1.4,0.8-1.6,1.5c-0.4,0.8-0.4,1.8-0.5,2.8c-0.2,2.9-0.5,5.6-4.7,5.6
		c0.1,0.2,0.2,0.4,0.2,0.6c1.9,1.5,3.9,2.9,6.2,4.6C28.1,79.8,27.8,77.8,30.4,76.8z M126.6,30.4c1.1-0.9,2.1-1.6,3-2.3
		c-0.5-0.4-1.2-1.3-1.6-1.2c-1.2,0.4-2.2,1.1-3.3,1.7C125.3,29.1,125.8,29.6,126.6,30.4z"/>
</g>
</svg>
