<?xml version="1.0" encoding="utf-8"?>
<!-- Generator: Adobe Illustrator 28.2.0, SVG Export Plug-In . SVG Version: 6.00 Build 0)  -->
<svg version="1.1" id="Layer_1" xmlns="http://www.w3.org/2000/svg" xmlns:xlink="http://www.w3.org/1999/xlink" x="0px" y="0px"
	 viewBox="0 0 206.4 208.3" style="enable-background:new 0 0 206.4 208.3;" xml:space="preserve">
<style type="text/css">
	.st0{fill:#FFFFFF;}
</style>
<g>
	<path class="st0" d="M70.9,0c5.7,1.6,11.5,3.1,17.2,5c3,1,5.7,2.8,8.7,3.9c5.2,1.8,10.4,3.4,15.7,4.9c4.4,1.3,8.8,2.3,13.1,3.6
		c7.4,2.2,11.4,8.7,10.9,16.8c-0.1,1.8,0.3,3.8,1.1,5.5c5.3,11.6,13.7,20.4,24.3,27.4c0.3,0.2,0.6,0.5,1,1.4
		c-0.7,0.1-1.4,0.5-1.9,0.2c-7.4-3.2-14.5-7.1-20.1-13.1c-1.7-1.9-2.7-4.5-4.1-6.7c-1-1.5-2.3-2.9-3.7-4.7c-2.8,7.6,3,13.4,2.6,20.4
		c-1-0.5-1.6-0.8-2.2-1.2c-6-4.3-8.9-17.1-4.8-23.2c1.6-2.4,2.5-4.6,2.6-7.4c0.2-5.1-2.3-9.1-7.2-10.6c-3.4-1.1-6.9-1.8-10.5-2.4
		c-2.4-0.4-3,0.4-2,2.6s2.3,4.2,3.3,6.4c0.3,0.7-0.2,1.8-0.3,2.8c-1-0.3-2.4-0.2-2.8-0.8C105,20.1,94.8,14.1,84,9.1
		C79.5,7,75.1,4.3,69.9,4.2c-2.2-0.1-4.5-0.1-6.6,0.3C59,5.1,56.4,7.9,55.6,12c-1.2,6.1-2.1,12.2-3,18.4c-0.6,4-1.4,8-1.4,12.1
		c0.1,8.2,3.3,15.3,9.2,21.1c1.1,1,2.9,2,1.7,3.6c-0.6,0.9-2.4,0.9-3.7,1.2c-0.3,0.1-0.7,0-1.7,0c0.8,4.2,1.4,8.2,2.5,12.1
		c2.2,7.7,3.7,15.5,2.9,23.6c-0.5,4.7,0.5,9.2,4.6,12.4c1,0.8,1.6,2.1,2,3.4c-5.7-2-9.4-6-11.6-12.2c-5.5,10.5-7.1,21.2-6.2,32.4
		c-0.3,0.1-0.5,0.1-0.8,0.2c-0.7-0.9-1.5-1.7-2-2.6c-3-5.1-3.9-10.6-2.3-16.3c0.9-3.4,2.3-6.6,3.5-9.9c0.5-1.4,1.3-2.7,2-4.1
		c2.5-5,3.3-10,2.2-15.8c-1.4-8.1-1.4-16.5-2-24.7c-0.1-1.3-0.4-2.7-0.8-3.9c-1.6-5.1-3.5-10.1-5-15.2c-1.6-5.4-0.3-10.7,0.9-16.1
		c1.3-5.7,2.7-11.5,3.7-17.3C51.7,7,55,1.4,63.2,0C65.8,0,68.3,0,70.9,0z"/>
	<path class="st0" d="M0,189.2c2.3-5,6.9-6.4,11.9-6.9c-2.6-4.5-2.7-6.5-0.5-8.9c2.3-2.7,4.8-3,9.2-1.2c-2.9-9.1-1.8-11.8,5.4-18.1
		c8.6-7.5,18.4-10.3,29.6-9.4c2.8,0.2,5.7-0.1,8.6,0.1c0.8,0,1.6,0.8,2.4,1.3c-0.7,0.6-1.3,1.5-2.1,1.7c-6.9,1.3-13.8,2.2-20.7,3.6
		c-4.5,0.9-8.6,2.9-12.1,5.9c-4.3,3.6-5,7.7-2.2,12.5c2.1,3.6,4.8,6.4,8.3,8.7c9.5,6.2,20.2,9.7,30.9,13.1
		c9.9,3.1,19.7,6.2,29.5,9.5c1.6,0.5,2.8,2,4.2,3.1c-1.5,1-2.9,2.8-4.4,2.9c-5.2,0.3-10.6,0.8-15.7-0.1c-10.6-2-21.1-4.9-31.6-7.5
		c-9.1-2.2-18.3-3.4-27.7-2.7c-2.4,0.2-4.9,1-7,2.2c-6.9,4.2-13.9,0.2-16.1-5.5C0,192,0,190.6,0,189.2z M83.6,202.9
		c0.1-0.2,0.1-0.5,0.2-0.7c-4.3-1.5-8.7-3-13-4.4c-9.1-3-18.3-5.9-27.5-8.9c-0.7-0.2-1.6-0.2-2.3-0.2c-10-0.5-20.1,0-29.9-2.7
		c-3.6-1-7.1,1.4-7.4,4.9c-0.3,2.7,1.7,5.6,4.4,6.4c3.3,1,5.5-0.1,7.1-2.9c0.6-1,1.9-2.3,2.8-2.3c7.4,0.1,14.9-0.2,22.2,0.9
		c9.5,1.5,18.8,4.2,28.1,6.4C73.3,200.6,78.5,201.7,83.6,202.9z M32.9,183.4c0.1-0.1,0.1-0.3,0.2-0.4c-1.4-0.9-2.8-1.8-4.2-2.6
		c-3.3-2-6.5-4.2-9.9-5.9c-1.2-0.6-3.4-0.4-4.3,0.3c-1,0.9-1.6,3.1-1.2,4.3c0.4,1,2.5,1.6,3.9,1.9c2.3,0.4,4.7,0,7,0.4
		C27.2,181.9,30,182.7,32.9,183.4z"/>
	<path class="st0" d="M138.1,203.9c-40.3-0.9-68.2-31.1-68.5-68.5c-0.3-41.2,35.5-70.2,68.7-68.6c36.4,1.8,67.3,28.9,67.7,69.3
		C206.3,175.6,171.6,203.9,138.1,203.9z M80,149c-0.1,0.2-0.2,0.5-0.2,0.7c1.9,6,3.9,12.1,6,18.1c0.2,0.6,1.7,1.3,2.5,1.2
		c11-0.8,22.1-1.5,33.1-2.6c9.4-0.9,18.8-2.1,28.2-3.2c6-0.7,12-1.3,18,0.2c3.4,0.9,6.9,1.6,10.9,2.6c-3.1-6-5.1-12.1-11.7-14.6
		c-3.6-1.4-7.4-2.7-11.2-3.3c-15.3-2.7-30.7-1.3-46,0.1c-5.8,0.5-11.7,0.6-17.6,0.8C88.1,149.1,84.1,149,80,149z M91.7,175.2
		c-0.2,0.2-0.3,0.4-0.5,0.7c1.3,1.6,2.3,3.5,3.9,4.7c3.7,2.8,7.5,5.6,11.6,7.8c9.9,5.2,20.3,8.8,31.8,8.1c5.3-0.3,10.8-0.2,15.9-1.6
		c9-2.6,17.2-7.1,24-13.8c2.4-2.3,2.3-3.1-0.6-4.7c-0.4-0.2-0.7-0.3-1.1-0.5c-10.4-5.3-21.7-4.8-32.8-4.5
		c-11.8,0.3-23.5,1.7-35.3,2.6C103,174.3,97.3,174.8,91.7,175.2z M166.5,140.1c-2.2-5.9-5.2-11.5-11.9-13.9
		c-3.7-1.3-7.6-2.8-11.5-3.1c-10.2-0.6-20.5-0.8-30.8-0.7c-10.7,0.1-21.3,0.7-32,1c-1.9,0-2.9,0.5-2.9,2.4
		c-0.1,5.2-0.2,10.5-0.4,15.7c-0.1,1.9,0.6,2.6,2.6,2.6c12.2,0.4,24.1-2.2,36-4.1c10.7-1.8,21.4-2.5,32.1-2.5
		C154,137.5,160.3,139.2,166.5,140.1z M155.4,116.6c-1.1-2.5-2-4.5-2.8-6.6c-1.8-4.7-5.3-7.6-10-8.8c-4-1-8.1-1.5-12.2-2
		c-13.5-1.7-27,0.4-40.6,0.5c-1,0-2.5,0.7-2.9,1.5c-2.6,5-5,10.1-7.4,15.2c-0.4,0.9-0.5,2.1-0.8,3.6c3.6-0.4,6.7-0.6,9.9-1
		c11.7-1.4,23.4-2.8,35-4.5C134.2,113,144.6,113.1,155.4,116.6z M192,103.8c-7.6,7.1-13,14.6-16.6,23.3c-1.4,3.3-1.4,6.6,0.3,9.9
		c1.1,2.2,2.1,4.5,3.2,6.7c0.8,1.5,1.7,2.9,2.3,4.1c2.5-2.8,4.7-5.6,7.1-8.2c3.2-3.4,5.3-7.8,10-9.7c1.4-0.6,3-1.9,2.3-4.2
		c-1.2-4.1-1.9-8.4-3.5-12.4C196,110.1,194,107.2,192,103.8z M144.4,92.3c-2.7-6.3-5.2-12.1-7.9-17.9c-0.3-0.7-2-1.3-3-1.3
		c-14,0.4-25.4,6.6-35.5,15.7c-1.4,1.3-2.7,2.7-4.1,4.1c0.1,0.2,0.3,0.5,0.4,0.7c8.2-1,16.4-2.3,24.6-2.9
		C127.4,90.1,135.8,90.1,144.4,92.3z M168.1,123.5c2.1-3.1,3.8-6.4,6.2-8.9c3.9-4.2,8.3-8,12.5-12c0.6-0.6,1.4-1.1,1.9-1.8
		c0.4-0.6,0.7-1.6,0.4-2.1c-3-4.5-6.6-8.6-11-11.8c-1.8-1.3-3.1-1.3-4.8,0.1c-4,3.1-7.1,7.1-9.2,11.4c-2.1,4.3-3.9,9.1-1.6,14
		C164.2,116.2,166.2,119.8,168.1,123.5z M168,82.9c-3.5-5.5-19.4-11.1-26.6-9.3c4.7,8.2,9.3,16.4,13.9,24.4
		C159.5,92.9,163.7,87.9,168,82.9z M199.9,136.5c-0.3-0.1-0.6-0.3-0.8-0.4c-1.1,1.5-2.2,3-3.3,4.5c-1.4,1.9-2.7,3.9-4.2,5.8
		c-5.9,7.2-6,14.2,0,21.4C197,157.9,198.9,147.3,199.9,136.5z"/>
	<path class="st0" d="M74.9,59.9c-3.2,0.2-4.9-0.8-6.4-2.3c-3.1-2.9-4.7-6.6-5-10.8C63,40.9,64.3,35.3,67.1,30
		c0.3-0.6,0.3-1.7,0-2.3c-1.4-3.4-3-6.7-4.6-10c-0.3-0.6-0.6-1.2-0.9-1.9c2.5-0.5,4.5,1.7,9.9,10.3c7.2-2.6,14.3-1.5,21.1,1.4
		c8.3,3.7,8.7,16.2,0.8,21.6c-2.7,1.8-5.9,2.8-9.4,4.4c0.2-1.4,0.3-2.5,0.6-3.5c1.6-6.7-0.5-12.6-4.5-17.8c-1-1.4-3.6-1.6-5.5-2.2
		c-0.3-0.1-1,0.6-1.3,1.1c-0.1,0.2,0.5,0.9,0.9,1.2c3.7,2.5,6.7,9.2,5,13.2c-0.8,2-2.9,3.9-4.9,4.8c-2.2,1-4.4-0.6-6-2.5
		c-0.4-0.5-0.7-1-1.2-1.6c0,4.5,1.2,8.1,5.2,10.5C73.4,57.1,73.9,58.4,74.9,59.9z M91.1,45.3c3.2-2.2,4.4-5.3,3.5-9.1
		c-1-4.4-5-7.6-10.8-8.4C88.5,32.8,89.9,38.9,91.1,45.3z"/>
	<path class="st0" d="M181.8,197.8c2.3-2.3,4.5-2.6,6.8-2.4c1.5,0.1,3,0.5,4.5,0.5c3.6,0,5.6-1.8,5.5-5.4c-0.1-2.7-0.9-5.3-1.4-7.9
		c-0.4-2-0.9-4-0.8-6.2c0.4,0.4,0.9,0.7,1.3,1.2c3.3,4,5.7,8.5,6,13.8c0.2,5.9-4.9,10.6-10.7,9.6
		C189.3,200.2,185.9,198.9,181.8,197.8z"/>
	<path class="st0" d="M79.2,54.8c0.7,0.5,1.5,1,2,1.6c4.5,6.2,8.3,12.8,10.7,20.1c0.5,1.6,0.8,3.1-1.1,3.7c-1.8,0.6-2.8-0.3-3.5-2
		c-1.9-4.8-4.1-9.5-5.9-14.3c-1.1-2.9-1.8-5.9-2.7-8.8C78.9,55.1,79,55,79.2,54.8z"/>
	<path class="st0" d="M73.1,176.5c-6.8-0.7-13-3-19.2-5.3c-1-0.4-2-0.7-2.8-1.2c-0.5-0.3-0.7-0.9-1.1-1.3c0.6-0.2,1.1-0.6,1.7-0.5
		c3.7,0.6,7.4,1.3,11.1,1.8c3.9,0.6,7.7,0.9,11.6,1.4c0.8,0.1,1.6,0.2,2.3,0.6c0.7,0.4,1.9,1.4,1.8,1.7c-0.3,0.9-1.1,1.9-2,2.3
		C75.4,176.5,74.1,176.4,73.1,176.5z"/>
</g>
</svg>
