<?xml version="1.0" encoding="utf-8"?>
<!-- Generator: Adobe Illustrator 28.2.0, SVG Export Plug-In . SVG Version: 6.00 Build 0)  -->
<svg version="1.1" id="Layer_1" xmlns="http://www.w3.org/2000/svg" xmlns:xlink="http://www.w3.org/1999/xlink" x="0px" y="0px"
	 viewBox="0 0 201.1 196.3" style="enable-background:new 0 0 201.1 196.3;" xml:space="preserve">
<style type="text/css">
	.st0{fill:#70382D;}
</style>
<g>
	<path d="M96.3,196.3c-4.9-1.2-9.9-2.1-14.8-3.6c-20.1-6.2-33.9-19.5-42.1-38.6c-14.1-32.9-0.3-70.6,32-87.8
		c19.3-10.3,38.7-9.8,58.4-0.8c12.4,5.6,22.4,13.9,29.7,25.2c8.5,13.3,11.9,28.1,10.4,43.9c-0.8,9-3.5,17.3-7.5,25.3
		c-3.4,6.9-8.3,12.6-13.9,17.6c-10.3,9.1-22.1,15.6-35.9,18c-1.5,0.3-2.9,0.5-4.4,0.8C104.2,196.3,100.2,196.3,96.3,196.3z
		 M43.9,141.2c1.2,6.7,3.5,12.9,6.2,18.9c0.3,0.6,1.6,1.2,2.3,1.1c11-0.8,22.2-1.2,33.1-2.6c9.4-1.2,18.7-2.8,28.2-3.1
		c4.9-0.2,9.9-0.7,14.7-0.3c4.7,0.4,9.3,1.9,14.6,3c-2.1-3.5-3.7-6.8-5.8-9.7c-1.4-1.8-3.3-3.6-5.4-4.5c-3.8-1.6-7.8-3-11.8-3.7
		c-15.4-2.8-30.8-1.3-46.2,0.1c-5.8,0.6-11.6,0.6-17.4,0.8C52.4,141.3,48.4,141.2,43.9,141.2z M56,167.5c-0.1,0.2-0.3,0.5-0.4,0.7
		c1.4,1.7,2.5,3.6,4.1,5C68.9,181.5,80.1,186,92,188c14,2.3,27.9,1,40.3-6.9c3.8-2.4,7.3-5.4,10.8-8.3c2-1.7,1.8-2.6-0.6-3.9
		c-1.2-0.7-2.6-1.3-3.9-1.8c-9.8-4.2-20.3-3.9-30.6-3.5c-13.8,0.5-27.6,2-41.5,3.1C63.1,166.9,59.5,167.2,56,167.5z M130.7,132.6
		c-2.4-9.1-8.7-14.3-17.8-16.3c-1.9-0.4-3.7-1-5.6-1.1c-10.2-0.3-20.4-0.7-30.6-0.7c-10.9,0.1-21.8,0.7-32.7,1c-1.5,0-2.3,0.6-2.3,2
		c-0.2,5.7-0.4,11.3-0.3,17c0,0.6,1.2,1.7,1.9,1.7c3.7,0.1,7.4,0.3,11-0.1c7-0.8,14-1.6,20.8-3c11.3-2.4,22.8-2.9,34.2-3.5
		c2.5-0.1,5.1,0,7.6,0.4C121.6,130.7,126.2,131.7,130.7,132.6z M119.7,108.6c-1.1-2.5-2-4.4-2.8-6.5c-1.9-4.9-5.5-7.8-10.4-9
		c-3.8-0.9-7.8-1.4-11.8-1.9c-13.5-1.7-27,0.4-40.5,0.5c-1,0-2.5,0.7-2.9,1.5c-2.6,4.9-5,10-7.3,15c-0.5,1-0.6,2.2-0.9,3.6
		c1.1,0,1.9,0.1,2.7,0c4-0.5,7.9-1,11.9-1.4c11.1-1.3,22.2-2.4,33.2-4C100.4,105,109.7,105.7,119.7,108.6z M145.3,140.3
		c2.9-3.4,5.4-6.5,8.1-9.4c2.9-3.2,5.1-7.1,9.4-9c1.2-0.5,2.8-1.7,2.2-3.8c-0.8-3.2-1.5-6.4-2.4-9.5c-1.3-4.5-3-8.9-6.9-12.1
		c-7.2,6.5-12.7,14.2-16.1,23.2c-0.8,2.1-1.2,4.9-0.5,7C140.8,131.3,143.2,135.8,145.3,140.3z M58.4,84.9c0.1,0.3,0.2,0.6,0.3,0.9
		c16.5-1.9,32.9-5.5,50-1.5c-2.7-6.3-5.1-12.1-7.8-17.8c-0.4-0.8-2.1-1.3-3.2-1.3C84.8,65.5,74,71,64.4,79.1
		C62.3,80.9,60.4,82.9,58.4,84.9z M132.6,116c5.1-10.3,13.1-17.3,21.6-24.1c-3.4-5.2-7.2-9.7-12.2-13.2c-1.6-1.1-2.8-1-4.3,0.1
		c-4.2,3.1-7.3,7.3-9.5,11.8c-2,4.1-3.7,8.9-1.7,13.6C128.3,108.1,130.5,111.8,132.6,116z M119.4,90c4-4.6,7.7-9.1,11.6-13.4
		c1.3-1.5,1.2-2.5-0.3-3.6c-7.2-5.3-15.2-7.8-24.1-7.9c-0.3,0-0.5,0.2-1,0.5C110.3,73.9,114.9,82,119.4,90z M163.6,128.1
		c-1,1.3-1.9,2.2-2.6,3.3c-1.5,2.1-2.8,4.5-4.5,6.5c-1.9,2.2-3.2,4.5-4.3,7.3c-2.3,5.8,0.3,10.1,3.2,14.6
		C159.6,155.5,165.1,134.6,163.6,128.1z"/>
	<path class="st0" d="M94.3,0c7.4,0.6,14.8,1.1,22.2,1.7c0.5,0,1.1-0.2,1.6-0.5c3.9-1.8,7.5-1,10.9,1.1c2.9,1.7,4.4,4.9,3.2,8
		c-1.6,4.5-3.9,8.7-5.9,13c-0.4,0.9-0.9,1.9-0.9,2.8c0.2,6.6-2.6,11.8-7.4,15.9c-2.4,2-4.9,3.9-7.3,5.8c-2.7,2.2-4.8,4.8-6,8.2
		c-0.2,0.6-1.1,1-1.6,1.4c-0.4-0.6-1.1-1.2-1.1-1.9c-0.3-3.9,1.2-7.1,3.9-9.6c3.3-3.2,7-6.1,10.3-9.3c2.8-2.7,4.7-6,5.4-10.1
		c-0.8,0.1-1.4,0.1-2.6,0.2c0.7-1,1.1-1.6,1.4-2.2c1.8-2.9,3.8-5.8,5.4-8.9c1.1-2.1-0.7-4.4-3-4.5c-1.1,0-2.2-0.1-3.3-0.3
		c-2.2-0.4-3.3-1.7-3.2-3.9c1.3,0.4,2.4,1.2,3.5,1.1c1.2-0.1,2.3-1.1,3.5-1.5c1-0.4,2.1-0.7,3.4-1.1c-3.5-1.9-7-2.3-10.6-2.1
		C107.9,4,99.6,5,91.3,5.3C79.6,5.6,68.4,8,57.2,10.9c-0.5,0.1-1,0.1-1.2,0.4c-1.4,2.4-3.5,1.9-5.6,1.3c-0.3-0.1-0.7-0.1-0.9-0.1
		c-9.8,2.5-19.8,4.7-26.8,13.1c-0.7,0.8-1.3,1.6-2,2.7c5.3,5.4,10.5,10.6,18.6,11.2c1,0.1,2.1,0.3,3.1,0.5c3.3,0.5,5.4,3,5.1,6.3
		c-0.1,0.7-1.1,1.8-1.6,1.8c-2.3-0.2-4.9-0.3-6.9-1.3c-5.7-3.1-11.1-6.7-16.7-10.1c-7.9,9-12.1,20.1-13.6,32.5
		c-2.4,20.7-1,41,6.5,60.6c4.4,11.3,9.5,22.3,17,32c6.2,8,14.3,13.9,22.5,19.6c1.3,0.9,2.4,2.1,3.6,3.2c-0.2,0.2-0.3,0.5-0.5,0.7
		c-1.5-0.7-3.1-1.4-4.6-2.2c-16-9.4-30.5-20.5-40.2-36.8c-7.5-12.6-11.5-26.4-12.7-41.1c-0.1-1.1-0.3-2.2-0.5-3.3
		c0-5.4,0-10.9,0-16.3C0.6,79.8,1.1,74,2.2,68.3c2.5-12.8,6.6-24.8,15.7-34.7c0.6-0.6,1.1-1.4,1.5-2c-3.4-4.9-3.3-5.4,0.4-10.2
		c0.4-0.5,0.8-1,1.2-1.5c5.2-5.7,11.6-9.8,19-12c4.7-1.4,9.7-1.7,14.5-2.7c8.2-1.7,16.1-3.5,24-5.2C83.8,0,89.1,0,94.3,0z"/>
	<path class="st0" d="M167.9,153.4c1-2.4,1.8-5,3.1-7.3c4.7-8.1,9.9-15.9,14.3-24.1c5.6-10.4,9.9-21.5,11.6-33.3c0-0.3,0-0.6,0-1.3
		c-1.8,2.1-3.4,3.8-4.9,5.6c-0.2-0.1-0.4-0.1-0.6-0.2c1.9-9.3,4.3-18.5,2.5-28.1c-1.8-9.3-3.5-18.6-5.3-27.9c-0.3,0-0.5,0-0.8,0
		c-0.5,1.3-0.9,2.5-1.6,4.3C177.3,31,171.9,19.2,164,8.9c5.2,17,7.4,34.1,2.1,51.6c-0.8-0.3-1.5-0.5-2.1-0.8s-1.2-0.6-2.1-0.8
		c7.7,10.7,7.1,21.3-0.4,31.9c-1.9-1.6-2.7-3.2-1.8-5.7c2.2-5.7,2.1-11.6,0.1-17.4c-1.9-5.4-3.8-10.8-5.8-16.8
		c3.1,1.7,5.9,3.2,8.9,4.8c1.1-8.3,1.4-16.5,0.3-24.7c-1.1-8.4-2.6-16.7-3.8-25.1c-0.3-1.8,0-3.6,0-5.9c10.6,7.1,16.7,17.5,24.2,27
		c0-2.1,0-4,0-5.8c0.2-0.1,0.4-0.3,0.6-0.4c0.9,1,2,1.9,2.8,2.9c3.9,5.2,6.4,11,8.2,17.2c3.2,11.1,6,22.4,5.7,34.1
		c-0.2,7.2,0.1,14.5-0.5,21.7c-0.7,9.7-3.7,18.8-9.1,27c-5.1,7.8-10.3,15.6-15.7,23.2c-1.8,2.6-4.5,4.6-6.8,6.9
		C168.4,153.8,168.1,153.6,167.9,153.4z"/>
	<path class="st0" d="M82.2,11.7c1,0.7,1.7,1.2,2.4,1.8c0.5-0.7,0.9-1.4,1.6-2.3c-0.2,0,0-0.1,0.2,0c1.5,0.7,4.2-1.5,4.4,1.5
		c0.3,4.4-1.7,6.8-5,7.1c-0.6,0-1.2,0.1-1.7,0c-1.3-0.4-3.3,1.2-3.9-1.4C79.4,14.8,79.8,13.2,82.2,11.7z"/>
	<path class="st0" d="M77.8,52.4c0.5-0.9,1-1.7,1.5-2.6c6.4-9.8,15-17.4,24.7-23.7c0.5-0.3,1.3-0.5,1.9-0.4c0.3,0,0.8,1.1,0.7,1.3
		c-0.3,0.5-0.9,0.9-1.5,1.2c-2.3,1.3-4.8,2.3-6.8,3.9C91.3,37.7,85,44,79.7,51.3c-0.4,0.5-0.9,1-1.3,1.5
		C78.2,52.8,78,52.6,77.8,52.4z"/>
	<path class="st0" d="M93.3,51.6c1.3-2.4,2.4-4.8,3.8-7.1c1.6-2.8,3.4-5.6,5.1-8.4c0.5-0.8,1.1-1.7,1.8-2.2c0.5-0.4,1.4-0.4,2.1-0.5
		c-0.1,0.7,0,1.5-0.4,2.1c-3.6,5.2-7.4,10.4-11.1,15.6c-0.2,0.3-0.5,0.6-0.7,0.9C93.6,51.8,93.4,51.7,93.3,51.6z"/>
</g>
</svg>
