<?xml version="1.0" encoding="utf-8"?>
<!-- Generator: Adobe Illustrator 28.2.0, SVG Export Plug-In . SVG Version: 6.00 Build 0)  -->
<svg version="1.1" id="Layer_1" xmlns="http://www.w3.org/2000/svg" xmlns:xlink="http://www.w3.org/1999/xlink" x="0px" y="0px"
	 viewBox="0 0 177.1 187.2" style="enable-background:new 0 0 177.1 187.2;" xml:space="preserve">
<style type="text/css">
	.st0{fill:#FFFFFF;}
</style>
<g>
	<path class="st0" d="M58.9,0c2.6,0.6,5.3,1,7.9,1.7c10.8,3,18.5,9.8,23.5,19.7c3.3,6.6,6.4,13.4,6,21.1c0,0.6-0.1,1.1-0.2,1.7
		C96,44.6,95.9,45,95.5,46c-0.8-2.4-1.5-4.2-2.1-6c-1.2-3.4-2.3-7-3.7-10.3C83.3,15,72.8,6.1,56.3,5.5C39.9,4.9,26,9.9,16.3,23.8
		c-3.2,4.6-5.1,9.8-5.7,15.3c-0.2,1.7-0.9,2.5-2.4,3.1c-4,1.4-4.6,2.4-3.9,6.6c0.2,1.3,0.5,2.7,0.9,3.9c1.5,4.4,2.5,8.7,1.2,13.5
		c2.7-3.2,6.6-3.4,10.2-4.3c7.5-1.8,8.8-5,4.3-11.3c-1.8-2.5-3.9-4.8-5.9-7.3c2.3-0.6,3.9,0.6,5.1,2c1.5,1.8,2.9,3.8,4.1,5.9
		c0.8,1.5,1.8,2.1,3.2,1.5c3.7-1.3,7.6-2.4,11.1-4.2c8.8-4.7,16.7-10.8,23.9-17.7c3.6-3.4,7.2-6.7,10.9-10c2.6-2.3,5.6-2.1,7.5,1.1
		c2.9,4.7,5.4,9.6,7.8,14.5c1.8,3.7,3.2,7.6,4.8,11.4c-2.3,0.9-3.2,0.1-4.1-2c-2.8-6.7-5.8-13.2-8.8-19.8c-0.3-0.7-0.9-1.3-1.4-2
		C68.3,37.4,55.8,48.3,39.5,54c-3.5,1.2-7.2,2-10.8,3.1C28,57.3,27.2,58,27,58.6c-0.9,3.4-3.3,4.9-6.5,5.6c-0.9,0.2-1.9,0.4-2.8,0.4
		C11.8,64.8,8.2,67.9,6,73c-0.5,1.3-0.5,2.8-0.8,4.1C5,78,4.7,78.7,4.4,79.5c-0.4-0.7-1.1-1.3-1.2-2c-0.2-3.4-0.6-6.9,0-10.2
		c0.7-4,0.4-7.6-1.1-11.2c-0.8-1.9-1.4-3.9-2-5.8c0-2.1,0-4.2,0-6.2c1.3-3.7,3-6.8,7.5-5.8c0.8-4,1.2-7.8,2.5-11.4
		C13.8,16.1,21.7,9,31.9,4.6C36.8,2.4,42.2,1.5,47.4,0C51.2,0,55.1,0,58.9,0z"/>
	<path class="st0" d="M97.3,186.8c-40.5-0.6-68.3-31.6-68.4-68.7c-0.1-40.2,34.4-69.3,67.5-68.4c37.1,1,68.8,29.1,68.8,70
		C165.2,158.5,130.5,187.2,97.3,186.8z M137.6,148.9c-3.1-7.9-7.1-14.3-15.8-16.3c-2.6-0.6-5.2-1.4-7.9-1.8
		c-14.5-2.4-28.9-1.1-43.4,0.2c-7,0.6-14.1,0.6-21.2,0.8c-3.4,0.1-6.8,0-10.5,0c1.2,6.8,3.5,13,6.3,19.1c0.3,0.7,1.7,1.2,2.6,1.1
		c5.7-0.2,11.5-0.4,17.2-1c14.3-1.5,28.6-3.2,42.9-4.8c6.7-0.7,13.5-1.4,20.2,0.4C131,147.4,134.1,148.1,137.6,148.9z M50.9,158.2
		c-0.1,0.2-0.2,0.5-0.3,0.7c1.2,1.5,2.1,3.3,3.5,4.4c3.8,2.8,7.6,5.8,11.8,8c10.4,5.3,21.2,8.6,33.2,8.2c11.6-0.4,22.1-3.3,31.6-10
		c2.5-1.7,4.8-3.7,7.1-5.7c2.3-2.1,2.2-2.9-0.5-4.4c-1.2-0.7-2.6-1.3-3.9-1.8c-9.7-4.1-20-3.8-30.2-3.3c-15.5,0.7-31,2.2-46.5,3.4
		C54.8,157.8,52.9,158,50.9,158.2z M126,123.9c-2.4-6.4-5.2-12-11.7-14.5c-3.3-1.3-6.6-2.8-10-3c-10.9-0.7-21.8-1.2-32.7-1
		c-10.8,0.2-21.6,1.9-32.4,0.9c-1.6-0.2-2.4,0.5-2.4,2.1c-0.1,5.7-0.3,11.4-0.3,17.2c0,0.5,1.2,1.5,1.9,1.5c4,0.1,8,0.2,11.9-0.3
		c7.1-0.8,14.3-1.6,21.3-3.1c11-2.4,22.1-2.6,33.2-3.3C111.8,119.9,118.8,121.5,126,123.9z M114.6,99.5c-0.9-2.1-1.8-3.9-2.4-5.7
		c-2-5.9-6.4-8.9-12.2-10.3c-2.2-0.5-4.4-0.8-6.6-1.1c-14.6-1.9-29.3-0.1-43.9,0.1c-1.2,0-2.9,0.7-3.4,1.7C43.5,89,41.2,94,38.9,99
		c-0.5,1-0.5,2.3-0.9,3.7c1.2,0,2,0.1,2.9,0c14.4-1.7,28.8-3.3,43.2-5.2C94.3,96,104.3,96.2,114.6,99.5z M140.2,131.1
		c2.7-3.1,5-5.9,7.4-8.5c3.2-3.5,5.4-7.9,10.1-9.9c1.1-0.5,2.8-1.6,2.2-3.5c-1.5-5.3-2.8-10.6-4.7-15.7c-0.8-2.3-2.8-4.1-4.3-6.3
		c-7.7,7.2-13.5,15.1-16.8,24.6c-0.5,1.6-0.8,3.7-0.2,5.1C135.8,121.7,138.1,126.4,140.2,131.1z M53.4,75.9c0.1,0.3,0.2,0.6,0.3,0.9
		c16.5-1.9,32.9-5.6,49.9-1.5c-2.3-5.4-4.4-10.4-6.5-15.4c-1.5-3.7-2.2-4-6.3-3.7C78,57.1,67.5,63,58,71.2
		C56.4,72.6,54.9,74.3,53.4,75.9z M149.1,82.8c-3.4-5.2-7.2-9.6-12.1-13.2c-1.6-1.2-2.8-1.1-4.4,0.1c-4.1,3.1-7.2,7.1-9.4,11.6
		c-1.9,4-3.8,8.5-1.9,13.1c1.7,4.2,4,8.2,6.2,12.4C132.4,96.6,140.6,89.6,149.1,82.8z M127.4,65.5c-7.8-6.8-16.7-9.4-27.2-9.5
		c4.9,8.6,9.6,16.9,14.2,25C118.8,75.8,122.9,70.8,127.4,65.5z M159.1,119.5c-0.3-0.1-0.5-0.2-0.8-0.3c-0.8,1-1.7,2-2.5,3.1
		c-1.4,2-2.5,4.3-4.2,6.1c-2.2,2.3-3.5,4.9-4.6,7.9c-2.2,5.7,0.6,9.9,3.7,14.8C156.2,140.8,158.2,130.3,159.1,119.5z"/>
	<path class="st0" d="M138.2,61.3c-1.3-0.9-2.4-1.6-3.4-2.5c-0.4-0.4-0.7-1.3-0.5-1.8c1.5-5.7,0.6-11.3-1.6-16.6
		c-2.8-6.6-6.6-12.6-11.6-17.7c-4.5-4.7-8.4-4.6-12.4,0.5c-2,2.7-3.6,5.9-4.7,9c-1.8,5.1-3.2,10.3-4.7,15.4c-0.2,0-0.4,0.1-0.7,0.1
		c-0.3-1.8-1-3.6-0.8-5.3c1.2-8.4,4-16.2,8.5-23.4c3.2-5,5.6-5.9,11-3.4c11.4,5.4,18.4,14.5,21.5,26.6c1.3,5.1,1.8,10.4,0.6,15.6
		C139.1,59,138.6,60,138.2,61.3z"/>
	<path class="st0" d="M165.3,136.1c0.7-4.3,1.3-7.9,2-11.6c1.2-5.7,2.7-11.4,3.7-17.2c1.8-10.3,1.2-20.6-1.1-30.8
		c-0.9-3.7-3-6.6-6.1-9.2c-3.3,4.4-1.6,11-6.5,14.6c-1.7-1.4-2.1-2.5-0.8-4.7c1.6-2.7,2.2-6.1,3.4-9.1c0.7-1.8,1.5-4,2.9-5.1
		c0.7-0.5,3.2,1.1,4.6,2.1c5.7,4.5,8,10.9,8.6,17.8c1.5,16.5-1.3,32.4-7.5,47.7c-0.6,1.4-1.4,2.7-2.1,4
		C166.2,135,165.9,135.2,165.3,136.1z"/>
	<path class="st0" d="M26.3,130.3c-1.7-0.7-3.4-1.1-4.7-2c-11-8-18.5-17.9-17.9-32.4C3.8,93,5,91.8,7.9,92.6c2.3,0.6,4.6,1.6,6.4,3
		c3.6,2.9,7.5,4.8,12,5.4c1.3,0.2,2.2,0.6,2,2.3c-0.2,1.8-1.5,1.7-2.4,1.5c-2.7-0.7-5.6-1.3-8-2.6c-3.3-1.7-6.3-4.1-9.4-6.1
		c-0.7-0.5-1.6-0.7-2.8-1.3c1.5,7.5,2.2,14.9,8.2,20.1c2.7,2.3,5.4,4.9,8.5,6.5C26.3,123.4,26.7,126.3,26.3,130.3z"/>
	<path class="st0" d="M148.1,171.5c2.8-3.4,5.3-6.4,7.9-9.4c4.3,4,6.6,14.9,4.2,20.3c-0.3,0.7-0.6,1.4-1.1,1.8
		c-1.2,0.9-2.5,1.7-3.8,2.5c-0.6-1-1.4-1.9-1.9-3C151.6,179.6,149.8,175.4,148.1,171.5z"/>
</g>
</svg>
