<?xml version="1.0" encoding="utf-8"?>
<!-- Generator: Adobe Illustrator 28.2.0, SVG Export Plug-In . SVG Version: 6.00 Build 0)  -->
<svg version="1.1" id="Layer_1" xmlns="http://www.w3.org/2000/svg" xmlns:xlink="http://www.w3.org/1999/xlink" x="0px" y="0px"
	 viewBox="0 0 184.3 236.2" style="enable-background:new 0 0 184.3 236.2;" xml:space="preserve">
<style type="text/css">
	.st0{fill:#FFFFFF;}
</style>
<g>
	<path class="st0" d="M0,31.1c12.1,1.2,24.3,2.7,35.4,8.1c2.9,1.4,5.5,3.7,7.9,6c0.9,0.9,1.3,3.3,0.8,4.6c-1.6,4.4-3.7,8.7-5.7,13.3
		c0.9,0.6,2.4,1.5,4.1,2.5c-0.8,1.3-1.5,2.6-2.5,4.3c-7.8-4.5-16-8-21.8-15.9c-1.2,1.6-2.4,2.7-3.1,4.1c-2.8,5.4-4.5,11.2-4.7,17.4
		c-0.1,4,1.9,6.9,5.1,8.9c4.6,2.9,9.5,5.4,14.8,8.3c0.2,1.1-0.4,2.1-2.1,3c-8.5,4.4-14.1,11.4-16.3,20.7c-1.2,5.1,0.6,9.6,4.2,13.4
		c4.4,4.5,9.4,8.1,15.1,10.7c3.8,1.8,4.9,2.9,6.8,7.6c-8.6-1.9-15.2-7.1-22.7-11.3c0.5,1.2,1,2.5,1.6,3.6
		c5.8,10.6,14.6,17.7,25.5,22.5c9.7,4.3,19.4,8.5,29,12.8c0.5,0.2,1.1,0.5,1.6,0.8c-0.1,0.2-0.1,0.5-0.2,0.7
		c-3.6-0.8-7.3-1.3-10.8-2.3c-12.1-3.3-24.1-7-34.2-14.8c-7.7-5.9-15.1-12.3-18-22c-1.9-6.2-3.6-12.5-4.2-18.8
		c-0.8-8.8,3.7-15.6,10.9-20.4c3-2,6.2-3.6,9.1-5.2c-3.6-2-7.5-3.7-10.9-6.1C7.3,82.4,5.7,77.7,8,69c0.5-2.1,1.5-4,2-6.1
		c0.4-1.5,0.9-3.3,0.6-4.8c-1.5-7.9-4.3-15.1-9-21.4C1.2,36,0.5,35.5,0,35C0,33.7,0,32.4,0,31.1z M38.9,47.1
		c-4.2-4.8-29.3-13.4-35-12.3c5.8,4.7,8.9,11,11,18.2c3.3-4.1,7.3-6,12.3-5.7c2.5,0.1,5.1,0.3,7.6,0.3
		C36.1,47.5,37.3,47.3,38.9,47.1z M41.8,49.5c-4.2,0-7.9,0.2-11.6-0.1c-3-0.2-5.8-0.2-9,2.2c5,3.3,9.7,6.3,14.5,9.5
		C38.2,57.3,40.9,53.9,41.8,49.5z"/>
	<path class="st0" d="M82.3,0c2.3,3.7,4.7,7.4,6.9,11.1c1.2,2,2.3,4.1,0.2,6.9c5-2.3,9.4-4.3,13.8-6.4c6.8-3.3,14.2-4.2,21.6-4.3
		c2.4,0,5.2,1.1,7.3,2.5c4.9,3,8.6,7.4,11.8,12.1c2.1,3.2,4.2,6.4,6.2,9.6c2.8,4.5,2.5,8.9-0.7,13.1c-1.6,2.1-3.3,4.3-5.2,6.3
		c-2.7,2.8-3,2.8-6.1-0.3c1-0.8,2.1-1.4,3-2.3c1.6-1.7,3.2-3.5,4.6-5.4c3-3.9,2.8-7.8,0.2-11.9c-4.2-6.8-9.2-12.8-15.2-18
		c-1.4-1.2-3-2-4.9-2.8c1.2,3.1-0.4,5.2-2,7.3c-5.8,8.1-13.2,14.5-21.5,19.8c-2,1.3-5.1,0.9-7.7,1.3c-0.1-0.2-0.2-0.5-0.3-0.7
		c1.8-1.3,3.6-2.7,5.5-4c7.1-4.9,14.1-9.9,19.6-16.7c0.9-1.1,1.7-2.3,2.5-3.5c1-1.6,0.6-2.4-1.3-2.3c-1.9,0.1-3.8,0.3-5.6,1
		c-4.7,1.7-9.4,3.4-13.9,5.6c-7.9,3.8-15.6,7.9-23.4,11.9c-3.6,1.8-7.2,3.5-11.4,2.5c-0.1,0.2-0.3,0.3-0.4,0.5
		c2.7,2.9,5.4,5.7,8,8.6c-2.6,2.3-3.1,2.3-5.7-0.1c-3.6-3.2-5.4-7.5-6.8-11.9c-0.4-1.4,0.2-3.7,1.2-4.8c2.3-2.7,5.1-5,7.7-7.4
		c0.6-0.5,1.3-0.9,2-1.2c7-3.1,9.3-8.9,9.4-16C82,0,82.2,0,82.3,0z M83.3,6.8c-0.8,6-4.7,9-8.6,12c-1.1,0.8-2.3,1.5-3.3,2.3
		c-1.4,1.1-3,2.2-4.2,3.5c-0.6,0.7-0.6,1.9-0.8,3c1,0.2,2.1,0.8,2.8,0.5c6.7-2.3,12.8-5.6,18.2-10.2c1.6-1.4,1.7-3.1,0.5-4.7
		C86.6,11.2,85.1,9.3,83.3,6.8z"/>
	<path class="st0" d="M99.9,178.3c-40.4-0.7-68.5-31.3-68.5-68.9c0-39.9,34-69.1,67.3-68.3c36.8,0.9,68.9,28.8,68.9,69.9
		C167.7,149.9,133.1,178.5,99.9,178.3z M140,140.2c-3-7.7-7-14.2-15.6-16.2c-1.2-0.3-2.4-0.7-3.7-1c-14-3.1-28-2.4-42.1-1.2
		c-9.3,0.8-18.5,2.5-27.9,1.4c-3-0.3-6-0.1-9-0.1c-0.1,0.4-0.2,0.6-0.2,0.8c1.9,6,3.8,12.1,5.9,18.1c0.2,0.7,1.8,1.3,2.7,1.3
		c4.1,0,8.1-0.1,12.2-0.5c16-1.7,31.9-3.6,47.9-5.2c5.6-0.5,11.3-0.6,16.9-0.2C131.4,137.9,135.5,139.3,140,140.2z M53.4,149.7
		c-0.1,0.2-0.2,0.5-0.4,0.7c1.3,1.6,2.5,3.3,3.9,4.7c5.6,5.4,12.5,8.3,19.5,11.3c12.7,5.4,25.9,5.7,38.9,2.9
		c9.6-2.1,18.1-7.4,25.3-14.4c1.8-1.8,1.7-2.9-0.6-4c-3.2-1.5-6.6-3.4-10-3.8c-8.1-1-16.4-1.8-24.5-1.5c-15.6,0.7-31.1,2.2-46.7,3.4
		C57,149.3,55.2,149.5,53.4,149.7z M128.4,114.8c-0.7-1.6-1.5-3.4-2.4-5.2c-1.9-3.7-4.5-6.9-8.5-8.4c-3.6-1.4-7.4-3.1-11.1-3.3
		c-10.7-0.7-21.5-1.2-32.2-1c-10.9,0.2-21.7,2-32.7,0.9c-1.5-0.1-2.3,0.5-2.3,2c-0.1,5.7-0.3,11.4-0.4,17.1c0,1.4,0.9,1.7,2.1,1.7
		c3.3,0,6.7,0.2,10-0.2c5.1-0.5,10.2-1.4,15.4-2.2c12.5-1.9,25-4.1,37.7-4.2c2.9,0,5.8-0.3,8.6,0.1
		C117.8,112.7,123.1,113.8,128.4,114.8z M117.1,90.9c-0.7-1.7-1.4-3-1.8-4.3c-2.4-7.7-8.1-11.3-15.6-12.2c-11.5-1.5-23-2-34.6-1
		c-4,0.3-8,0.2-11.9,0.5c-1.5,0.1-3.9,0.5-4.4,1.5c-2.9,5.4-5.4,11-7.9,16.5c-0.8,1.7-0.1,2.5,1.9,2.2c4.6-0.6,9.2-1.2,13.7-1.8
		C66.9,91,77.4,90,87.8,88.5C97.6,87.3,107.2,87.8,117.1,90.9z M153.3,78.8c-0.6,0.6-1.1,1-1.5,1.4c-5.3,5.2-9.6,11.2-13,17.9
		c-2.7,5.3-3.4,10.3-0.3,15.6c1.7,2.9,3.1,5.9,4.7,8.8c1.2-1.6,2.1-3,3.1-4.3c2.5-3,5-6,7.7-8.8c1.6-1.7,3.4-3.3,5.4-4.5
		c2.8-1.7,3.5-2.9,2.7-6.1c-0.3-1.2-0.5-2.3-0.8-3.5C159.8,89.3,158.3,83.3,153.3,78.8z M106.1,66.7c-2.7-6.2-5.1-11.9-7.6-17.6
		c-1-2.2-3-1.6-4.8-1.5c-13.4,0.8-24.3,7-34,15.7c-1.4,1.3-2.7,2.8-4,4.2c0.1,0.2,0.2,0.5,0.4,0.7C72.6,66.3,89,62.5,106.1,66.7z
		 M130,98.2c0.4-0.4,0.6-0.6,0.6-0.8c3.6-8.2,10.1-14,16.7-19.6c1.1-0.9,2.3-1.7,3.3-2.8c0.4-0.4,0.6-1.5,0.3-1.9
		c-3.2-4.7-6.9-8.9-11.6-12.3c-1.5-1-2.5-0.8-3.8,0.1c-4.2,3.1-7.4,7.2-9.6,11.7c-2.2,4.5-4,9.5-1.4,14.7
		C126.2,90.9,128,94.4,130,98.2z M102.7,47.4c4.9,8.7,9.6,16.9,14.2,25c4.4-5.2,8.6-10.2,13-15.4C122.3,50.2,113.4,47.6,102.7,47.4z
		 M161.6,110.8c-0.3-0.1-0.6-0.2-0.9-0.3c-1.1,1.5-2.2,2.9-3.2,4.4c-1.1,1.6-1.9,3.4-3.3,4.7c-2.6,2.4-3.8,5.5-5,8.7
		c-1.6,4.1,0.7,10.3,4.1,13.6C158.7,132.1,160.7,121.6,161.6,110.8z"/>
	<path class="st0" d="M127.8,176.5c3.8-1.8,7.3-4.1,11.7-2.2c1.8,0.8,3.9,0.8,5.8,1.2c2,0.5,2.5,1.6,1.6,3.3
		c-2.9,5-2.2,11.9,1.7,16.3c5,5.6,11.7,7.8,18.7,9.3c0.7,0.2,1.7-0.3,2.3-0.8c6.4-5.3,7-21.1,1-26.7c-4.9-4.6-10.6-5.8-17-3.7
		c-0.5,0.2-1,0.4-1.9,0.7c4.3-5.6,0.8-9.9-1.7-14.4c0.1-0.2,0.3-0.6,0.6-0.9c0.3-0.4,0.6-0.7,1-1.2c4.1,2.5,5.1,6.6,5.7,11.1
		c2.5,0,5.1,0,8,0c-0.7-1.3-1.5-2.6-2.3-3.9c-1.8-3.2-3.6-6.4-5.5-9.5c-1-1.7-1.1-3.1,0.5-4.7c0.4,0.5,0.9,0.9,1.2,1.5
		c2.7,4.3,5.5,8.4,7.9,12.8c2.1,3.7,4.1,7.3,7.4,10.1c4.3,3.7,5.7,8.5,5.4,13.9c-0.1,1.5,0.2,3.2,0.6,4.6c1.9,6.4,3.7,12.8,3.5,19.7
		c-0.1,4.4-0.8,8.5-2.7,12.5c-1.1,2.3-2.3,4.6-3.2,6.9c-0.9,2.3-2.2,3.6-4.8,3c-2.1-0.5-4.2-2.9-4.3-5.2c0-0.5,0-1,0.1-1.4
		c1.5-5.4-0.5-10.3-2-15.4c-1.3-4.4-4.3-6.3-8.3-7.6c-3.1-1-6.1-2.3-8.9-3.9c-7-4.1-10.1-12.8-7.1-20.1c1.6-3.9,1.3-4.2-2.9-4.7
		c-3.1-0.3-6.2-0.4-9.3-0.7C129.5,176.7,128.7,176.6,127.8,176.5z M177.1,197.8c-0.4,1.1-0.5,1.7-0.8,2.2c-2.5,4.4-3.4,8.7-0.6,13.4
		c1,1.7,1.3,3.8,2.1,6.4C179.4,212.1,178.9,205.2,177.1,197.8z"/>
	<path class="st0" d="M164.9,29.3c7.8,7,16,46,7.4,63.7c-0.9-3.5-2.8-6.2-1.8-10c2.7-10.4,2-21,0.2-31.5c-0.1-0.5-0.3-0.9-0.5-1.8
		c-1.2,8.2-2.9,15.7-8.4,21.8c-2.4-2.6-2.5-3.3-0.9-5.9c6.5-10.4,7.9-21.5,4.5-33.3C165.1,31.3,165.1,30.3,164.9,29.3z"/>
</g>
</svg>
