<?xml version="1.0" encoding="utf-8"?>
<!-- Generator: Adobe Illustrator 28.2.0, SVG Export Plug-In . SVG Version: 6.00 Build 0)  -->
<svg version="1.1" id="Layer_1" xmlns="http://www.w3.org/2000/svg" xmlns:xlink="http://www.w3.org/1999/xlink" x="0px" y="0px"
	 viewBox="0 0 185.8 211.7" style="enable-background:new 0 0 185.8 211.7;" xml:space="preserve">
<style type="text/css">
	.st0{fill:#FFFFFF;}
</style>
<g>
	<path class="st0" d="M0,110.2c1.4-2.5,2.2-5.8,4.3-7.2c3.8-2.4,5.2-6.3,7.9-9.3c0.4-0.4,0.6-1.4,0.4-1.9c-1.5-3.5-0.3-6.3,2.2-8.6
		c1.3-1.1,1-1.9,0.3-3.2c-5.5-9.6-5.1-20.3,1.8-27.5c3-3.1,7.1-5.3,10.9-7.5c3.1-1.8,6.7-2.7,9.7-4.7c3.4-2.2,6.5-4.8,9.5-7.5
		c2.2-2,3.7-2,4.8,0.8c0.6,1.5,0.7,3.3,0.7,4.9c0,2.1-0.3,4.2-0.6,6.3s-2,3.4-5.3,4c-1.1,4.2-2.6,5.4-7.2,5.3
		c-0.1,3.8-2.3,5.6-5.4,5.9c-0.7,2.8-1.4,5.4-2.2,8.4c0.3,0.4,1.2,1.3,2.1,2.4c1.7-2.7,4.1-3.6,7.2-4.1c1.6-0.2,2.9-2.3,4.3-3.5
		c1.5-1.3,2.3-2.7,2.3-4.9c0-3,1.9-5.2,4.5-6.5c1.7-0.8,2.5-1.9,2.5-3.8c0.1-3.3,1.9-5.5,4.6-7.4c4.8-3.3,9.9-5.7,15.4-7.3
		c0.4-0.1,0.8-0.4,1.1-0.4c5.6,0.4,11.2-1.5,16.7,0.1c0.4,0.1,0.8,0.1,1.1,0.2c0.6-1.5,1.2-3,1.8-4.4c-4.2-1.6-4.9-2.8-3.9-6.9
		c-3.3-1.6-3.8-2.3-4.3-6.4c-4.4-0.5-5.3-1.4-6-5.4c-2.3-0.3-4.7-0.5-5-3.6C75.9,1.1,76,1.1,79,0c2.7,0,5.4,0,8.1,0
		c6.8,1.3,12.8,4.3,17.6,9.4c6.3,6.7,10,14.6,10.3,23.8c0.1,2.7-0.6,5.5-1,8.5c0.3,0.2,1.1,0.7,2,1.2c2.3-7.5,5.8-14.6,4.5-22.6
		c-0.3-2.2-1.1-4.3-1.4-6.5c-0.3-2-0.5-4-0.4-5.9c0.2-2.9,2.1-3.9,4.9-3.1c8.2,2.2,10.8,8.7,12.3,16.1c1.2,6.1,1.3,12.2,0,18.3
		c-0.7,3.3-0.2,6.3,1.6,9.1c0.7,1.1,1.2,2.4,1.5,3.2c2.5,0.3,4.6,0.6,7,0.9c0.7-0.9,1.6-3.4,3-3.8c4.2-1.1,4-4.3,4.6-7.3
		c0.3-1.4,0.4-3,1.1-4.1c0.8-1.4,2.1-3,3.5-3.5c1.9-0.6,3.6,1,4.2,2.8c0.9,2.8,1.5,5.7,1.8,8.6c0.4,5-0.6,9.9-3.1,14.3
		c-3.2,5.6-8.2,8.5-14.4,9.6c-0.5,0.1-1.1,0.2-1.6,0.3c0.6,2.4,1.5,4.7,1.5,7c0.1,2.6-0.5,5.2-1,7.7c-0.3,1.4-1.3,1.6-2.4,0.8
		c-3-2.3-5.9-4.7-8.8-7c2.3-2.8,2.4-4.8,0-7.6c-0.5-0.6-1.4-1.1-2.1-1.1c-2-0.2-4.1-0.1-6.4-0.1c0.3,1.8,0.7,3.7,1.1,5.9
		c-3.1-2.8-5.5-5.9-8.6-7.5c-3.1-1.7-7-2-11-3c-0.4,2.1-1,4.1-1.2,6.2c-0.2,1.9-1,2.6-2.8,2.4c-1.1-0.1-2.2-0.2-3.3-0.5
		c-0.6-0.2-1.2-0.9-1.4-1.5c-0.6-1.3-1-2.7-1.3-3.7c0.4-1.6,1.4-3.3,1-4.6c-0.3-1-2.3-1.5-3.6-2.1C94,60,93,60,92,59.7
		c-1.9-0.5-3.1,0.1-3.2,2.2c-0.1,0.6-0.6,1.3-1.2,1.7c-2,1.3-3.4,3.2-3.2,5.5c0.2,2.5,2.1,3.8,5,4.5c-1.6,0.6-2.8,1.2-4,1.5
		c-1.5,0.3-2-0.8-2.1-2.2c-0.3-3.7,1.3-6.8,2.7-10c0.3-0.8,0.6-1.7,1-2.8c-3.5-0.1-6,1.2-7.9,3.5c-4.1,5-8.5,9.8-11.8,15.3
		C62.4,87.1,55.5,93,47.7,98c-5.2,3.3-9.9,7.3-13.5,12.3c-3.6,4.9-3.2,8.6,0.9,13.1c0.4,0.4,1,1.1,0.8,1.5c-0.8,2.6-1.3,5.4-2.8,7.5
		c-1.5,2.1-3.6,4.2-6.9,4.4c3.3-3.2,5-6.9,3.9-11.4c-1-4.2-3.1-7.6-7.7-8.9c0.1-0.2,0.2-0.5,0.3-0.7c1.7,0.2,3.4,0.3,4.8,0.5
		c1.6-3.5,3.2-7,4.7-10.4c-8.3-1.4-9.8-2.3-9.5-6.3c5.5,3.8,9.7,3.8,13.4-0.2c2.7-2.9,2.6-5.8-0.4-9.5c4.2-0.7,5.5,1.2,5.1,8.4
		c7.9-6.2,16.9-10.6,21.9-19.8c2.6-4.7,5.8-9.2,8.7-13.7c5.7-8.9,13.8-11.7,23.8-9c6.3,1.7,12.4,4,18.6,6.1
		c10.5,3.5,21.3,5,32.3,3.2c11.4-1.9,16.6-11.5,15-22.6c-0.3-2.3-1.2-4.6-1.8-6.9c-0.4,0-0.8,0-1.2,0c-0.3,1.2-0.7,2.4-0.8,3.6
		c-0.1,1.2,0.1,2.4-1.4,3c-0.4,0.2-0.8,1-0.8,1.6c0,3.2,0,3.2-1.9,5.9c-3.8-0.7-5.3,0.8-4.6,5c-1.5,0.7-2.9,1.2-4.4-0.5
		c-1.4-1.6-3-1.4-4.8,0.2c-2,1.8-3.2,1.8-5.2,0c-0.5-0.4-1-0.8-1.3-1.4c-2-3-4.7-3.3-7.8-2.2c-2.2,0.8-3.6,0.3-4.6-1.9
		c-1.5-3.1-3.4-3.9-6.8-3.2c-1.9,0.4-3.2,0.4-3.5-2.1c-0.2-2-2.7-4-4.6-3.8c-0.9,0.1-1.7,1.3-2.8,2.1c-1.9-4.5-5.5-3.4-8.6-2
		c-0.4-1.3-0.3-2.7-1-3.4c-1.6-1.5-3.9-2.3-6-1.3c-1,0.5-1.3,2.3-2.1,3.7c-0.2,0-1.1,0-1.3,0c-0.7-1.3-1.1-2.7-2-3.4
		c-2.1-1.6-5.4-1.5-7.2-0.1c-0.3,0.2-0.5,0.4-0.7,0.6c-2.9,2.8-2.8,3.7,1,5.7c-2,0.3-3.9,0-5.3,0.8c-1.3,0.8-2,2.7-2.9,4.1
		c-0.3-1.3-0.3-2.6-0.9-3.3s-2.1-0.8-3.1-0.7c-3,0.3-5.4,2.8-5.1,5.3c0.2,2.1,1.3,2.5,5.7,2.6c-1.1,0.8-2.2,1.5-3.3,2.3
		c-0.1,1-0.2,2-0.4,3.4c-1.7-2.6-3.9-3.5-6-2.8c-1.9,0.6-3.6,3.1-3.7,5.2c0,3.5,1.8,4.4,5.7,2.8c0.1,0.2,0.2,0.3,0.4,0.5
		c-1.1,0.7-2.1,1.7-3.3,2.1c-2.3,0.8-4.8,3.8-5.1,6.3c-0.1,1.2-0.7,2.4-1.2,3.7c-0.6-0.5-0.8-0.6-0.8-0.7c-0.5-1.2-0.7-2.7-1.5-3.4
		c-1.1-0.9-5.3,0.5-6.4,1.8c-0.3,0.4-0.5,0.8-0.7,1.2c-1.1,1.6-1.7,3.6-0.4,5.1c0.7,0.8,2.6,0.7,4.3,1.1c-0.7,1.2-2.1,1.6-3.7,1.6
		c-3,0-3.3,0.4-4,3.1c-0.5,1.8-1.7,3.4-2.5,5.1c-0.3-0.1-0.6-0.2-0.9-0.3c0.1-1,0-2.1,0.2-3.1c0.3-2.3-1-3.4-2.9-4
		c-3.9-1.2-10.3,2.3-11.4,6.2c-0.9,3.1,0.5,5.5,3.8,6c1.3,0.2,2.7,0,4,0c0.1,0.3,0.1,0.6,0.2,0.8c-1.4,0.4-2.8,1.1-4.2,1
		c-1.8-0.1-2.6,0.6-3.4,1.9c-0.9,1.5-1.8,3-2.7,4.6c2.6,2.1,4.8,4.3,4.4,8.6c-0.7-1.2-1.2-1.8-1.5-2.4c-1.5-3.1-4.4-4.1-7.4-4.6
		c-0.9-0.1-2.2,0.7-2.8,1.4c-2.5,3-3.5,6.4-2.4,10.3c0.8,3,2.5,4.1,5.5,3.3c2.4-0.6,4.7-1.6,7.7-2.6c-1.3,4.3-4.7,4.9-7.9,6.3
		c0.5,3.6,0.9,7.1,1.4,10.5c2.6,0.3,4.8,0.5,7,0.8c0,0.3,0,0.6,0,0.9c-1.7,0.5-3.5,0.8-5.2,1.4c-2.1,0.8-4.5,1.6-4.7,4.5
		c-0.2,3,0.5,5.7,3.4,7.4c2.6,1.5,5.2,2,7.9,0.3c4.3-2.7,5.1-5,3.4-9.9c-0.2-0.6-0.4-1.3-0.7-2.1c2.9,1.2,3.8,4.1,3.2,10.4
		c1.7,0.8,3.3,1.8,5.1,2.3c2.5,0.6,3.4,2,3.2,4.4c-0.1,0.6,0,1.2,0,2.4c-4-1.7-7.7-3.2-11.6-4.9c-0.1,0.5-0.3,1-0.3,1.5
		c-0.1,2-1.1,3.2-2.9,4c-2.8,1.2-3.7,3.6-2.6,6.2c1.3,3,2.6,3.4,6.6,1.6c-0.5,1.7-0.6,3-1.2,4c-2.2,3.8-1.6,5.6,2.8,7.5
		c1.2-1.5,2.3-3.1,3.5-4.6c4.3,1.8,5.1,3.1,4.2,7.1c-0.4,2,0.5,2.8,2.1,3.4c1.8,0.7,3.5,0.8,4.6-1.1c0.7-1.2,1.2-2.4,1.8-3.6
		c4.1-0.2,3.7,3.7,5.4,6c-2.3-0.7-3.8,0.5-5.6,1.4c-2.9,1.4-6.1,1.2-9-0.5c-3-1.7-3.5-3.3-2.3-6.6c0.1-0.2-0.2-0.4-0.2-0.4
		c-1.7,0.8-3.4,2.3-5,2.2c-1.5-0.1-3.2-1.6-4.5-2.8c-3.2-3.3-3.6-6.2-1.8-8.5c-1.3-1.3-3-2.3-3.5-3.8c-0.6-1.8-0.5-4.1-0.1-6
		c0.3-1.2,1.9-2.1,2.9-3.1c0.6-0.6,1.2-1,1.7-2c-3.5,0.8-6.5,0.1-9.4-1.8c-4.6-3-6-9.3-2.6-14.6c0.8-1.2,1-1.9,0.5-3.2
		c-0.5-1.2-0.8-2.6-1-3.9c-0.5-3.3-0.5-6.7-3.4-9.3c-1-0.9-1.3-2.7-1.9-4.1C0,114,0,112.1,0,110.2z M29.9,58.5
		c6,1.4,8.1-1.9,8.8-6.6c4.7,1,6.2-0.1,7-4.8c2.7,0.3,4.8-0.8,4.8-3c0.1-2.5-0.2-4.9-0.4-7.4c-0.1-0.8-0.5-1.6-0.8-2.4
		c-0.2-0.1-0.5-0.1-0.7-0.2c-1,2-2.1,4-3.2,6.4c-2.4-0.1-4.5,1.4-5.9,4c-0.4,0.7-1.5,1-2.3,1.4c-1.3,0.7-3.3,1.2-3.7,2.3
		c-1,2.6-2.9,2.7-5.1,3c-3,0.3-4.9,2-5,4.8c-0.1,2.1-1,2.8-2.8,3.5c-3.6,1.3-4.9,5.8-2.5,8.4c1.6,1.7,1.6,3.1,0.9,5.1
		c-0.9,2.3,0.2,4.4,2.3,5.3c2.6,1.1,7.2,0,9-2.1c2-2.4,1.5-5.2-1.2-6.6c-0.8-0.4-1.7-0.8-2.8-1.3C30,65.9,31.7,62.9,29.9,58.5z
		 M105.7,32.4c2.2-1.8,3.6-3.8,3-6.7c-0.6-3.2-3.3-3.4-5.2-3.7c0.1-2.3,1-4.6,0.2-6.2c-1-2.1-3.5-2-5.3-1.1c-0.5-2.1-0.6-4.3-1.6-6
		c-1.4-2.6-3.7-1.1-5.7-0.1c-0.4-1-0.6-1.9-1.1-2.5c-0.6-0.8-1.4-1.8-2.2-1.8c-1.9,0-3.4-0.5-5-1.7c-0.6-0.5-2.7-0.4-3.2,0.2
		c-0.8,1.1-1.1,2.7-1.3,4.2c0,0.2,1.7,0.9,2.6,0.8c1.8-0.2,2.1,0.7,2.2,2.2c0.2,2.8,1.3,3.6,4.1,3.2c0.9-0.1,1.8-0.2,2.3-0.3
		c0.1,1.9-0.3,4,0.5,5.2c0.9,1.3,2.9,1.7,4.6,2.5c-0.2,0.3-0.4,0.7-0.6,1.1c-1.8,2.8-1.2,4.2,2.2,4.6c0.3,0,0.6,0,1,0.1
		c1.7,0.3,1.9,1.2,1,2.6c-0.5,0.6-1.1,1.2-1.5,1.9c-1.1,1.9-0.7,2.8,1.3,3.5c3.2,1.2,6.4,2.6,10.2,1.5
		C107.5,34.8,106.7,33.7,105.7,32.4z M124.1,10.3c-1.2,0.9-2.5,1.5-2.9,2.5c-0.3,0.8,0.6,2,1.2,3.4c-1.1,1-1,2.6,0.2,4.2
		c0.2,0.2,0.4,0.6,0.3,0.8c-2.3,3,0.2,4.7,1.8,6.6c-3.5,1.7-3.8,3.1-1.6,7.1c-2.5,0.4-3.6,2.1-4.4,4.2c-1.1,2.6,0.2,4.7,3,5.2
		c1.1,0.2,2,0.9,3.1,1.3c0.8,0.3,1.9,0.7,2.6,0.4c0.6-0.2,1.4-1.4,1.2-2c-0.3-1.1-1.1-2.1-1.7-3.2c4-1.8,4.7-3.5,3.1-8.7
		c0.7,0.5,1.3,1,2,1.5c0.3-1.6,0.5-2.9,0.8-4.3c-0.9,0.2-1.6,0.3-2.7,0.5c2.5-3,0.9-5.5-0.3-8.4c1.3,0.6,2.1,1,3.1,1.4
		c-0.1-0.9-0.1-1.7-0.1-2.5c-0.7,0.3-1.2,0.5-1.5,0.6c0.2-1.3,0.7-2.7,0.4-3.8c-0.3-1.3-1.4-2.3-2.2-3.5c-0.2,0.2-0.4,0.3-0.6,0.5
		c0.8-0.1,1.6-0.2,2.4-0.2c0.2-0.2,0.3-0.4,0.5-0.6c-1.9-1.9-3.6-4.1-5.7-5.8c-2.1-1.6-3-1.1-3.9,1.2
		C122.7,9.2,123.5,9.9,124.1,10.3z"/>
	<path class="st0" d="M173.1,142.9c0.6,39.8-33.2,67.1-64.5,68.1c-42.7,1.4-71.5-30.5-71.7-68.1c-0.3-40.8,34.2-68.8,65.8-68.8
		C140.3,74.2,172.9,102.6,173.1,142.9z M46.7,156.2c1.3,6.8,3.6,12.9,6.2,18.8c0.3,0.6,1.5,1.2,2.3,1.2c5.7-0.2,11.3-0.2,16.9-0.8
		c10.9-1.2,21.8-2.9,32.7-4.2c5.4-0.6,10.8-0.8,16.1-1.3c6.7-0.6,13.2,0.3,19.6,2c1.6,0.4,3.2,0.9,5,1.4c-3-8.3-7.5-14.7-16.4-16.6
		c-2.3-0.5-4.6-1.2-7-1.6c-14.7-2.4-29.4-1.1-44.1,0.2c-6.7,0.6-13.5,0.6-20.2,0.8C54.3,156.3,50.7,156.2,46.7,156.2z M58.2,182.7
		c1.3,1.8,2.1,3.1,3.2,4.3c4.1,4.5,9.3,7.4,14.7,9.9c11.5,5.4,23.4,7.7,36.2,6.6c13.3-1.2,24.2-6.9,33.7-15.7c2-1.8,1.9-2.9-0.5-3.9
		c-3.9-1.7-7.8-3.7-11.8-4.2c-7.2-1-14.6-1.6-21.9-1.2c-16.2,0.8-32.4,2.4-48.6,3.6C61.8,182.3,60.4,182.5,58.2,182.7z M133.9,148
		c-0.7-1.5-1.2-2.9-1.8-4.2c-2-4.2-4.6-7.9-9.1-9.7c-3.5-1.4-7-3.1-10.7-3.3c-11.1-0.7-22.3-1.2-33.4-1c-10.6,0.2-21.1,1.9-31.7,0.9
		c-1.7-0.2-2.6,0.6-2.6,2.2c-0.2,5.5-0.3,11-0.4,16.5c0,1.5,0.7,2.2,2.2,2.2c4.3-0.2,8.6,0,12.9-0.5c15.5-2,30.9-5.6,46.6-5.8
		c5.9-0.1,11.8,0,17.6,0.5C127,146,130.3,147.2,133.9,148z M122.2,123.8c-3.5-10.7-5.7-14.7-17.3-16.4c-8.2-1.2-16.5-1.4-24.8-1.5
		c-6.8-0.1-13.7,0.8-20.5,0.9c-3.1,0.1-5.3,0.6-6.9,3.7c-2.7,5.2-5.4,10.4-6.9,16.5c1.1,0,2,0.1,2.8,0c14.4-1.7,28.8-3.2,43.1-5.2
		C102.1,120.3,112.2,120.6,122.2,123.8z M148.3,155.4c2.8-3.3,5.5-6.4,8.2-9.5c2.8-3.3,5.2-7,9.4-9c1-0.5,2.3-2.4,2-3.3
		c-1.3-5.4-2.8-10.8-4.7-16c-0.8-2.2-2.7-4.1-4.2-6.1c-7.1,6.4-12.2,13.7-15.9,21.9c-1.3,2.9-2.2,6-0.9,9
		C144.1,146.9,146.3,151.2,148.3,155.4z M111.6,99.6c-2.2-5.3-4.4-10.2-6.4-15.1c-1.6-4-2.2-4.3-6.5-4c-13.4,1-24.3,7.4-34,16.2
		c-1.2,1.1-2.2,2.4-3.3,3.5c0.1,0.2,0.2,0.5,0.3,0.7C78.1,99.2,94.6,95.5,111.6,99.6z M135.5,131.2c5-10.3,13.1-17.3,21.6-24.1
		c-3.4-5.2-7.2-9.8-12.3-13.3c-1.5-1.1-2.6-0.9-4,0.2c-4.2,3.1-7.3,7.2-9.6,11.7c-2.1,4.1-3.8,8.8-1.8,13.6
		C131.2,123.3,133.4,127.1,135.5,131.2z M122.4,105.3c3.9-4.6,7.7-9.1,11.6-13.4c1.3-1.5,1.1-2.4-0.3-3.5c-4.5-3.4-9.5-5.8-15.1-6.9
		c-3.2-0.7-6.5-0.8-9.8-1.2c-0.1,0.2-0.2,0.5-0.4,0.7C113.1,89,117.8,97.1,122.4,105.3z M167.1,143.9c-0.3-0.1-0.5-0.3-0.8-0.4
		c-1,1.2-2,2.4-2.9,3.7c-1.3,1.8-2.3,3.9-3.8,5.5c-2.2,2.2-3.4,4.7-4.6,7.6c-2.3,5.8,0.4,10.1,3.5,15
		C164.3,165.2,166,154.6,167.1,143.9z"/>
	<path class="st0" d="M174.2,140.2c0.4-1.4,0.6-2.8,1.2-4.1c2-4.4,3.9-8.9,4.3-13.8c0.4-5.1-0.9-9.8-3.7-14.1
		c-2.5-3.9-6.4-5-10.8-4.7c-0.8,0-1.7-0.3-2.5-0.4c0.2-0.9,0.3-1.8,0.7-2.6c0.4-0.7,1.1-1.3,1.9-2.2c-6-4.7-11.3-10.4-19.4-11.6
		c2.4-1.6,4.8-1.2,7.1-0.6c7.2,1.9,13,6.3,18.7,10.8c0.5,0.4,0.9,0.9,1.5,1.2c10.6,6.3,14.6,17,10.7,28.6
		c-1.6,4.8-5.5,10.9-8.8,13.7C174.7,140.3,174.5,140.2,174.2,140.2z"/>
	<path class="st0" d="M176.9,146.2c1.2,10.7,2.6,21.5,3.6,32.2c0.6,5.9-0.4,11.6-3.2,16.9c-2.2,4.2-5.4,6.9-9.9,7.9
		c-5.3,1.2-10.6,1.3-15.7-0.7c-1.5-0.6-2.9-1.6-4.3-2.4c1.3-1.7,2.4-1.9,4.2-1.3c5.3,1.8,10.7,1.6,16-0.1c3.6-1.2,5.5-4.2,6.7-7.6
		c2.1-5.9,2.7-12,2.4-18.1c-0.3-6.6-0.9-13.2-1.2-19.8c-0.1-2.3,0.4-4.7,0.6-7C176.4,146.2,176.6,146.2,176.9,146.2z"/>
	<path class="st0" d="M171.2,114.8c0.6,0.3,1.2,0.6,1.8,1c0.5,0.3,1,0.7,1.5,1.1c0.2-0.2,0.4-0.4,0.6-0.6c0.7-0.5,1.4-1,2.1-1.5
		c0.1,0.9,0.3,1.7,0.4,2.6c0.2,1.7,0.3,3.3,0.4,5.1c-0.6-0.2-1.2-0.4-1.7-0.5c-0.9,1-1.7,2.1-2.6,3.1c-0.2-0.1-0.5-0.1-0.7-0.2
		c-0.5-3.3,0.8-7-2.4-9.5C170.7,115.1,171,115,171.2,114.8z"/>
	<path class="st0" d="M59.8,58c2.6,0.2,5.7,1.6,7.4-1c1.3-1.9,1.7-4.5,2.5-7c1.5,0.7,2.3,2.2,2.1,4.3c-0.2,2.7-2.3,5-5.1,5.7
		C64.4,60.6,60.8,59.6,59.8,58z"/>
	<path class="st0" d="M57.9,62.2c2.6,0.5,4.1,1.7,4.5,4c0.5,2.7-1.5,6.3-4.3,7.6c-2.1,1-3.9,0.4-5.9-1.3c2.8-0.5,5.6,0.1,7.2-2.6
		C61.1,67,59,64.9,57.9,62.2z"/>
	<path class="st0" d="M73.7,46.8c2.2-0.5,4.5-0.6,6.4-1.4c1.5-0.6,2.6-2,3.9-3c0.3-0.3,0.8-0.4,1.1-0.6c0.2,0.4,0.4,0.8,0.6,1.2
		c0,0.1,0,0.2,0,0.2c-0.1,2-2.4,4.5-4.8,5.2C77.7,49.3,75,48.6,73.7,46.8z"/>
	<path class="st0" d="M40.5,84.7c3.5,0.7,6.4,1.7,9.1-0.5c2.6-2.1,2.9-5.1,2.6-8.4c2.4,3.3,1.7,7.9-1.2,10.2
		C47.9,88.2,43.1,87.8,40.5,84.7z"/>
	<path class="st0" d="M90.2,42.2c3.2,3.1,6.8,4.4,11.1,2.5c-1.1,2.2-3.6,3.3-6.5,2.8C92.1,47.1,90.4,45.1,90.2,42.2z"/>
	<path class="st0" d="M106,46.7c2,3.6,4,5.2,9.6,3.6c-0.2,1.7-1.3,2.4-2.6,2.6c-2.7,0.4-4.9-0.6-6.5-2.6c-0.7-0.9-0.8-2.2-1.1-3.4
		C105.5,46.9,105.7,46.8,106,46.7z"/>
	<path class="st0" d="M128.2,55.6c-3,3.2-8.9,0.7-10.7-4.4C120,54.9,123.7,56,128.2,55.6z"/>
	<path class="st0" d="M152.2,55.3c0.2,2.2-1,3.6-2.8,4.2c-1.8,0.6-3.7,0.9-5.7-1.2C147.7,59.5,150.3,58.3,152.2,55.3z"/>
	<path class="st0" d="M131.9,57.7c4.1,2.4,5.9,2.5,8.6,0.5c-0.5,1.8-1.2,2.3-3.5,2.5C134.9,60.8,133.1,60.4,131.9,57.7z"/>
	<path class="st0" d="M157.2,48.7c0.5,3.8-0.9,5.4-4.3,4.6C155.4,52.7,156.9,51.2,157.2,48.7z"/>
</g>
</svg>
